<?xml version="1.0" encoding="UTF-8"?>
<svg id="Layer_1" data-name="Layer 1" xmlns="http://www.w3.org/2000/svg" viewBox="0 0 554.27 331.34">
	<defs>
		<style>
			.cls-1 {
			fill: #102448;
			}
			
			.cls-1, .cls-2 {
			stroke-width: 0px;
			}
			
			.cls-2 {
			fill: #ae8334;
			}
		</style>
	</defs>
	<path class="cls-1" d="M44.3,255.1c4.15,2.9,7.05,6.74,8.7,11.52v-35.07h13.51v85.61h-13.51v-15.87c-1.64,4.78-4.54,8.62-8.7,11.52-4.15,2.9-9.17,4.35-15.04,4.35s-10.68-1.33-15.1-4c-4.43-2.66-7.89-6.5-10.4-11.52-2.51-5.01-3.76-10.93-3.76-17.74s1.25-12.61,3.76-17.63c2.51-5.01,5.97-8.85,10.4-11.52,4.43-2.66,9.46-3.99,15.1-3.99s10.89,1.45,15.04,4.35M19.1,268.21c-3.57,3.8-5.35,9.03-5.35,15.69s1.78,11.89,5.35,15.69c3.56,3.8,8.32,5.7,14.28,5.7,3.76,0,7.13-.88,10.11-2.64,2.98-1.76,5.33-4.25,7.05-7.46,1.72-3.21,2.58-6.97,2.58-11.28s-.86-7.97-2.58-11.22c-1.72-3.25-4.08-5.76-7.05-7.52-2.98-1.76-6.35-2.64-10.11-2.64-5.96,0-10.72,1.9-14.28,5.7" />
	<path class="cls-1" d="M79.55,233.32c1.25-1.18,2.9-1.77,4.95-1.77s3.72.59,5,1.77c1.28,1.18,1.92,2.68,1.92,4.48s-.64,3.27-1.92,4.39c-1.28,1.12-2.94,1.68-5,1.68s-3.71-.56-4.95-1.68c-1.25-1.12-1.87-2.58-1.87-4.39s.62-3.3,1.87-4.48" />
	<path class="cls-1" d="M542.4,233.32c1.25-1.18,2.9-1.77,4.95-1.77s3.72.59,5,1.77c1.28,1.18,1.92,2.68,1.92,4.48s-.64,3.27-1.92,4.39c-1.28,1.12-2.94,1.68-5,1.68s-3.71-.56-4.95-1.68c-1.25-1.12-1.87-2.58-1.87-4.39s.62-3.3,1.87-4.48" />
	<rect class="cls-1" x="77.72" y="250.84" width="13.52" height="66.31" />
	<path class="cls-1" d="M154.67,254.92c4.39,2.65,7.83,6.46,10.32,11.43,2.49,4.98,3.73,10.81,3.73,17.5s-1.25,12.64-3.73,17.62c-2.49,4.98-5.93,8.79-10.32,11.43-4.39,2.64-9.39,3.97-14.99,3.97s-10.81-1.44-14.93-4.32c-4.12-2.88-7-6.69-8.63-11.43v30.22h-13.3v-80.5h13.3v15.87c1.63-4.74,4.51-8.55,8.63-11.43,4.12-2.88,9.1-4.32,14.93-4.32s10.6,1.32,14.99,3.97M125.56,265.25c-2.96,1.75-5.29,4.24-7,7.47-1.71,3.23-2.57,6.94-2.57,11.14s.85,8.01,2.57,11.2c1.71,3.19,4.04,5.66,7,7.41,2.95,1.75,6.3,2.63,10.03,2.63,5.91,0,10.65-1.88,14.23-5.66,3.58-3.77,5.37-8.96,5.37-15.57s-1.79-11.71-5.37-15.52c-3.58-3.81-8.32-5.72-14.23-5.72-3.73,0-7.08.87-10.03,2.63" />
	<rect class="cls-1" x="180.19" y="231.55" width="13.52" height="85.61" />
	<path class="cls-1" d="M254.81,254.72c5.01,2.67,8.94,6.51,11.76,11.52,2.82,5.02,4.23,10.9,4.23,17.64s-1.41,12.74-4.23,17.75c-2.82,5.02-6.74,8.86-11.76,11.52-5.02,2.67-10.66,4-16.93,4s-11.9-1.33-16.87-4c-4.98-2.66-8.9-6.53-11.76-11.58-2.86-5.06-4.29-10.95-4.29-17.69s1.43-12.62,4.29-17.64c2.86-5.01,6.78-8.86,11.76-11.52,4.98-2.66,10.6-4,16.87-4s11.91,1.33,16.93,4M228.36,264.71c-2.9,1.57-5.23,3.98-7,7.23-1.76,3.25-2.65,7.23-2.65,11.94s.88,8.78,2.65,11.99c1.76,3.22,4.1,5.61,7,7.17,2.9,1.57,6.07,2.35,9.52,2.35s6.62-.78,9.52-2.35c2.9-1.57,5.23-3.96,7-7.17,1.76-3.21,2.65-7.21,2.65-11.99s-.88-8.68-2.65-11.94c-1.76-3.25-4.1-5.66-7-7.23-2.9-1.57-6.08-2.35-9.52-2.35s-6.63.78-9.52,2.35" />
	<path class="cls-1" d="M382.45,258.08c4.63,4.9,6.94,11.9,6.94,21v38.08h-13.52v-36.66c0-5.69-1.42-10.1-4.27-13.23-2.85-3.12-6.76-4.69-11.74-4.69-5.3,0-9.51,1.68-12.63,5.04-3.13,3.36-4.69,8.29-4.69,14.77v34.76h-13.52v-36.66c0-5.69-1.42-10.1-4.27-13.23-2.85-3.12-6.76-4.69-11.74-4.69-5.3,0-9.51,1.68-12.63,5.04-3.12,3.36-4.69,8.29-4.69,14.77v34.76h-13.52v-66.43h13.52v14.71c1.66-4.74,4.43-8.38,8.3-10.91,3.87-2.53,8.42-3.8,13.64-3.8s10.18,1.35,14.18,4.03c3.99,2.69,6.9,6.56,8.72,11.63,1.9-4.9,4.94-8.74,9.13-11.51,4.19-2.77,8.94-4.15,14.24-4.15,7.75,0,13.94,2.45,18.57,7.35" />
	<path class="cls-1" d="M445.14,255.29c4.14,2.89,7.07,6.72,8.79,11.48v-16.05h13.36v66.43h-13.36v-15.82c-1.72,4.77-4.65,8.59-8.79,11.48-4.14,2.89-9.14,4.33-15,4.33s-10.64-1.33-15.06-3.98c-4.41-2.65-7.87-6.48-10.37-11.48-2.5-5-3.75-10.9-3.75-17.69s1.25-12.58,3.75-17.57c2.5-5,5.96-8.82,10.37-11.48,4.41-2.66,9.43-3.98,15.06-3.98s10.86,1.45,15,4.34M420,268.35c-3.55,3.79-5.33,9-5.33,15.64s1.78,11.85,5.33,15.64c3.55,3.79,8.3,5.68,14.24,5.68,3.75,0,7.11-.88,10.08-2.64,2.97-1.76,5.31-4.24,7.03-7.44,1.72-3.2,2.58-6.95,2.58-11.25s-.86-7.95-2.58-11.19c-1.72-3.24-4.06-5.74-7.03-7.5-2.97-1.76-6.33-2.64-10.08-2.64-5.94,0-10.68,1.9-14.24,5.68" />
	<path class="cls-1" d="M520.24,256.76c4.57,3.87,7.36,9.04,8.38,15.52h-12.65c-.55-3.51-2.05-6.34-4.51-8.49-2.46-2.15-5.72-3.22-9.78-3.22-3.36,0-5.96.8-7.79,2.4-1.84,1.6-2.75,3.77-2.75,6.5,0,2.03.66,3.67,1.99,4.92,1.33,1.25,2.99,2.23,4.98,2.93,1.99.7,4.82,1.49,8.49,2.34,4.84,1.09,8.77,2.23,11.78,3.4,3,1.17,5.58,3.03,7.73,5.57,2.15,2.54,3.22,6,3.22,10.37,0,5.39-2.05,9.77-6.15,13.12-4.1,3.36-9.63,5.04-16.58,5.04-8.05,0-14.55-1.88-19.51-5.62-4.96-3.75-7.2-8.98-8.22-15.7h12.26c.39,3.52,1.95,6.37,4.69,8.55,2.73,2.19,6.33,3.28,10.78,3.28,3.2,0,5.72-.84,7.56-2.52,1.83-1.68,2.75-3.81,2.75-6.39,0-2.26-.7-4.06-2.11-5.39-1.41-1.33-3.16-2.36-5.27-3.11-2.11-.74-5-1.5-8.67-2.28-4.69-1.09-8.49-2.19-11.42-3.28-2.93-1.09-5.43-2.87-7.5-5.33-2.07-2.46-3.1-5.8-3.1-10.02,0-5.47,2.05-9.9,6.15-13.3,4.1-3.4,9.78-5.1,17.05-5.1s13.65,1.93,18.22,5.8" />
	<rect class="cls-1" x="540.64" y="250.72" width="13.52" height="66.43" />
	<path class="cls-1" d="M233.04,50.16c-6.57-35.61,31.22-62.81,62.94-44.05,19.28,11.41,30.66,44.75,7.65,57.98-22.35,12.84-50.42.95-73.47,12.78-23.86,12.24-13.94,38.46-.69,54.9-30.41,12.72-62.23-14.69-56.11-46.84,3.76-19.76,22.03-34.46,42.24-34.09,14,.26,25.46,9.12,38.8,11.82,14.15,2.86,36.58,2.88,48.43-6.5,11.4-9.03.14-15.79-8.82-18.85-17.85-6.09-36.87-3.69-52.64,6.58l-8.33,6.28Z" />
	<path class="cls-1" d="M321.23,141.22c6.57,35.61-31.22,62.81-62.94,44.05-19.28-11.41-30.66-44.75-7.65-57.98,22.35-12.84,50.42-.95,73.47-12.78,23.86-12.24,13.94-38.46.69-54.9,30.41-12.72,62.23,14.69,56.11,46.84-3.76,19.76-22.03,34.46-42.24,34.09-14-.26-25.46-9.12-38.8-11.82-14.15-2.86-36.58-2.88-48.43,6.5-11.4,9.03-.14,15.79,8.82,18.85,17.85,6.09,36.87,3.69,52.64-6.58l8.33-6.28Z" />
	<path class="cls-2" d="M298.61,96.78c-13.36,2.54-15.68,4.85-18.22,18.22-.03.18-.3.18-.33,0-2.54-13.37-4.85-15.68-18.22-18.22-.18-.03-.18-.3,0-.33,13.37-2.53,15.68-4.85,18.22-18.22.03-.18.3-.18.33,0,2.54,13.36,4.85,15.68,18.22,18.22.18.04.18.3,0,.33" />
</svg>
