<svg width="402" height="711" viewBox="0 0 402 711" fill="none" xmlns="http://www.w3.org/2000/svg">
	<path d="M362.189 338.599C355.595 335.142 353.042 326.965 356.499 320.371C359.956 313.776 368.133 311.224 374.727 314.68C381.321 318.137 383.874 326.314 380.417 332.908C376.961 339.503 368.784 342.056 362.189 338.599ZM372.016 319.853C368.273 317.891 363.633 319.34 361.671 323.082C359.71 326.825 361.158 331.465 364.901 333.427C368.643 335.388 373.283 333.94 375.245 330.197C377.207 326.455 375.758 321.815 372.016 319.853Z" fill="#F5F7F8" />
	<path d="M330.934 195.962C324.339 192.505 321.787 184.328 325.243 177.734C328.7 171.139 336.877 168.587 343.471 172.043C350.066 175.5 352.618 183.677 349.162 190.271C345.705 196.866 337.528 199.418 330.934 195.962ZM340.76 177.216C337.017 175.254 332.377 176.703 330.415 180.445C328.454 184.187 329.902 188.828 333.645 190.789C337.387 192.751 342.027 191.302 343.989 187.56C345.951 183.818 344.502 179.177 340.76 177.216Z" fill="#F5F7F8" />
	<path d="M271.123 512.331C264.528 508.874 261.976 500.697 265.432 494.103C268.889 487.508 277.067 484.956 283.66 488.412C290.255 491.869 292.808 500.046 289.351 506.64C285.894 513.235 277.718 515.787 271.123 512.331ZM280.949 493.584C277.207 491.623 272.566 493.072 270.605 496.814C268.643 500.556 270.092 505.196 273.834 507.158C277.577 509.12 282.217 507.671 284.179 503.929C286.14 500.186 284.692 495.546 280.949 493.584Z" fill="#F5F7F8" />
	<path d="M180.058 686.063C173.463 682.606 170.911 674.429 174.367 667.835C177.824 661.241 186.001 658.688 192.595 662.145C199.19 665.601 201.742 673.778 198.286 680.373C194.829 686.967 186.652 689.52 180.058 686.063ZM189.884 667.317C186.141 665.355 181.501 666.805 179.539 670.546C177.578 674.289 179.026 678.929 182.769 680.891C186.511 682.852 191.151 681.404 193.113 677.661C195.075 673.919 193.626 669.279 189.884 667.317Z" fill="#F5F7F8" />
	<path d="M187.261 246.906C180.666 243.449 178.114 235.272 181.57 228.678C185.027 222.084 193.204 219.531 199.798 222.988C206.393 226.444 208.945 234.621 205.489 241.216C202.032 247.81 193.855 250.363 187.261 246.906ZM197.087 228.16C193.344 226.198 188.704 227.648 186.743 231.389C184.781 235.132 186.23 239.772 189.972 241.734C193.714 243.695 198.355 242.247 200.316 238.504C202.278 234.762 200.829 230.122 197.087 228.16Z" fill="#F5F7F8" />
	<path d="M96.1953 420.639C89.6007 417.182 87.0483 409.005 90.5047 402.411C93.9614 395.816 102.139 393.264 108.733 396.72C115.327 400.177 117.88 408.354 114.423 414.948C110.967 421.543 102.79 424.095 96.1953 420.639ZM106.021 401.893C102.279 399.931 97.6385 401.38 95.6771 405.122C93.7155 408.864 95.1641 413.505 98.9065 415.466C102.649 417.428 107.289 415.979 109.251 412.237C111.212 408.495 109.764 403.854 106.021 401.893Z" fill="#F5F7F8" />
	<path d="M5.12983 594.372C-1.46472 590.915 -4.01709 582.738 -0.560728 576.144C2.89596 569.55 11.0733 566.997 17.6673 570.454C24.2618 573.91 26.8145 582.087 23.3578 588.682C19.9011 595.276 11.7244 597.829 5.12983 594.372ZM14.956 575.626C11.2136 573.664 6.57306 575.114 4.61171 578.855C2.65004 582.598 4.09867 587.238 7.84108 589.2C11.5835 591.161 16.2237 589.713 18.1854 585.97C20.1471 582.228 18.6984 577.588 14.956 575.626Z" fill="#F5F7F8" />
	<path d="M228.113 379.053C221.519 375.597 218.966 367.419 222.423 360.825C225.879 354.231 234.057 351.678 240.651 355.135C247.245 358.591 249.798 366.768 246.341 373.363C242.885 379.957 234.708 382.51 228.113 379.053ZM237.939 360.307C234.197 358.345 229.556 359.795 227.595 363.537C225.633 367.279 227.082 371.919 230.824 373.881C234.567 375.842 239.207 374.394 241.169 370.651C243.13 366.909 241.682 362.269 237.939 360.307Z" fill="#F5F7F8" />
	<path d="M137.047 552.786C130.452 549.329 127.9 541.152 131.356 534.558C134.813 527.963 142.99 525.411 149.584 528.867C156.179 532.324 158.732 540.501 155.275 547.095C151.818 553.69 143.641 556.242 137.047 552.786ZM146.873 534.04C143.131 532.078 138.49 533.527 136.529 537.269C134.567 541.011 136.016 545.652 139.758 547.613C143.5 549.575 148.141 548.126 150.102 544.384C152.064 540.642 150.615 536.001 146.873 534.04Z" fill="#F5F7F8" />
	<path d="M45.9814 726.516C39.3868 723.06 36.8345 714.882 40.2908 708.288C43.7475 701.694 51.9249 699.141 58.5189 702.598C65.1134 706.055 67.6661 714.231 64.2094 720.826C60.7527 727.42 52.5759 729.973 45.9814 726.516ZM55.8076 707.77C52.0652 705.809 47.4246 707.258 45.4633 711C43.5016 714.742 44.9502 719.382 48.6926 721.344C52.4351 723.306 57.0753 721.857 59.037 718.115C60.9986 714.372 59.55 709.732 55.8076 707.77Z" fill="#F5F7F8" />
	<path d="M403.041 470.745C396.446 467.288 393.894 459.111 397.35 452.517C400.807 445.923 408.984 443.37 415.578 446.827C422.173 450.283 424.726 458.46 421.269 465.055C417.812 471.649 409.636 474.202 403.041 470.745ZM412.867 451.999C409.125 450.037 404.484 451.487 402.523 455.228C400.561 458.971 402.01 463.611 405.752 465.573C409.495 467.534 414.135 466.086 416.097 462.343C418.058 458.601 416.61 453.961 412.867 451.999Z" fill="#F5F7F8" />
	<path d="M53.1865 287.361C46.5919 283.905 44.0395 275.727 47.4959 269.133C50.9526 262.539 59.13 259.986 65.7239 263.443C72.3185 266.899 74.8712 275.076 71.4145 281.671C67.9578 288.265 59.781 290.818 53.1865 287.361ZM63.0127 268.615C59.2703 266.654 54.6297 268.103 52.6683 271.845C50.7067 275.587 52.1553 280.227 55.8977 282.189C59.6401 284.151 64.2804 282.702 66.242 278.96C68.2037 275.217 66.7551 270.577 63.0127 268.615Z" fill="#F5F7F8" />
	<path d="M311.975 644.479C305.38 641.022 302.828 632.845 306.284 626.251C309.741 619.656 317.918 617.104 324.512 620.56C331.107 624.017 333.659 632.194 330.203 638.788C326.746 645.383 318.569 647.935 311.975 644.479ZM321.801 625.733C318.058 623.771 313.418 625.22 311.456 628.962C309.495 632.704 310.943 637.345 314.686 639.306C318.428 641.268 323.068 639.819 325.03 636.077C326.992 632.334 325.543 627.694 321.801 625.733Z" fill="#F5F7F8" />
	<path d="M276.138 294.297C282.276 297.514 289.859 295.147 293.076 289.01C296.293 282.872 293.926 275.289 287.789 272.072C281.651 268.855 274.068 271.222 270.851 277.36C267.634 283.497 270.001 291.08 276.138 294.297Z" fill="#F5F7F8" />
	<path d="M273.427 290.104C279.564 293.321 287.147 290.954 290.364 284.816C293.582 278.679 291.214 271.096 285.077 267.878C278.939 264.661 271.356 267.029 268.139 273.166C264.922 279.304 267.289 286.887 273.427 290.104Z" stroke="#F5F7F8" stroke-width="1.37411" stroke-miterlimit="10" stroke-linecap="round" stroke-linejoin="round" />
	<path d="M185.334 467.975C191.471 471.192 199.055 468.825 202.272 462.688C205.489 456.55 203.121 448.967 196.984 445.75C190.846 442.533 183.263 444.9 180.046 451.038C176.829 457.175 179.196 464.758 185.334 467.975Z" fill="#F5F7F8" />
	<path d="M182.622 463.783C188.759 467 196.343 464.633 199.56 458.495C202.777 452.358 200.409 444.774 194.272 441.557C188.135 438.34 180.551 440.708 177.334 446.845C174.117 452.983 176.484 460.566 182.622 463.783Z" stroke="#F5F7F8" stroke-width="1.37411" stroke-miterlimit="10" stroke-linecap="round" stroke-linejoin="round" />
	<path d="M94.2655 641.71C100.403 644.927 107.986 642.56 111.203 636.422C114.42 630.285 112.053 622.701 105.916 619.484C99.7781 616.267 92.1948 618.635 88.9777 624.772C85.7606 630.91 88.128 638.493 94.2655 641.71Z" fill="#F5F7F8" />
	<path d="M91.5555 637.517C97.6929 640.734 105.276 638.366 108.493 632.229C111.71 626.092 109.343 618.508 103.206 615.291C97.0681 612.074 89.4848 614.441 86.2677 620.579C83.0506 626.716 85.418 634.3 91.5555 637.517Z" stroke="#F5F7F8" stroke-width="1.37411" stroke-miterlimit="10" stroke-linecap="round" stroke-linejoin="round" />
	<path d="M101.472 202.551C107.61 205.768 115.193 203.401 118.41 197.263C121.627 191.126 119.26 183.543 113.123 180.326C106.985 177.108 99.4018 179.476 96.1847 185.613C92.9676 191.751 95.335 199.334 101.472 202.551Z" fill="#F5F7F8" />
	<path d="M98.7606 198.359C104.898 201.576 112.481 199.209 115.698 193.071C118.916 186.934 116.548 179.35 110.411 176.133C104.273 172.916 96.6899 175.284 93.4728 181.421C90.2557 187.559 92.6231 195.142 98.7606 198.359Z" stroke="#F5F7F8" stroke-width="1.37411" stroke-miterlimit="10" stroke-linecap="round" stroke-linejoin="round" />
	<path d="M360.261 559.668C366.398 562.885 373.981 560.517 377.198 554.38C380.416 548.243 378.048 540.659 371.911 537.442C365.773 534.225 358.19 536.592 354.973 542.73C351.756 548.867 354.123 556.451 360.261 559.668Z" fill="#F5F7F8" />
	<path d="M357.552 555.477C363.689 558.694 371.272 556.327 374.489 550.189C377.707 544.052 375.339 536.468 369.202 533.251C363.064 530.034 355.481 532.402 352.264 538.539C349.047 544.676 351.414 552.26 357.552 555.477Z" stroke="#F5F7F8" stroke-width="1.37411" stroke-miterlimit="10" stroke-linecap="round" stroke-linejoin="round" />
	<path d="M10.4061 376.284C16.5435 379.501 24.1269 377.133 27.344 370.996C30.561 364.859 28.1936 357.275 22.0562 354.058C15.9187 350.841 8.3354 353.208 5.11831 359.346C1.90123 365.483 4.26863 373.067 10.4061 376.284Z" fill="#F5F7F8" />
	<path d="M7.69416 372.091C13.8316 375.308 21.415 372.94 24.632 366.803C27.8491 360.665 25.4817 353.082 19.3442 349.865C13.2068 346.648 5.62348 349.015 2.4064 355.153C-0.810683 361.29 1.55672 368.874 7.69416 372.091Z" stroke="#F5F7F8" stroke-width="1.37411" stroke-miterlimit="10" stroke-linecap="round" stroke-linejoin="round" />
	<path d="M269.194 733.401C275.332 736.618 282.915 734.251 286.132 728.114C289.349 721.976 286.982 714.393 280.844 711.176C274.707 707.959 267.123 710.326 263.906 716.464C260.689 722.601 263.057 730.184 269.194 733.401Z" fill="#F5F7F8" />
	<path d="M266.485 729.209C272.623 732.426 280.206 730.059 283.423 723.921C286.64 717.784 284.273 710.201 278.135 706.984C271.998 703.767 264.414 706.134 261.197 712.271C257.98 718.409 260.348 725.992 266.485 729.209Z" stroke="#F5F7F8" stroke-width="1.37411" stroke-miterlimit="10" stroke-linecap="round" stroke-linejoin="round" />
	<path d="M317.25 426.389C323.387 429.607 330.971 427.239 334.188 421.102C337.405 414.964 335.037 407.381 328.9 404.164C322.762 400.947 315.179 403.314 311.962 409.452C308.745 415.589 311.112 423.172 317.25 426.389Z" fill="#F5F7F8" />
	<path d="M314.538 422.198C320.675 425.415 328.259 423.047 331.476 416.91C334.693 410.772 332.325 403.189 326.188 399.972C320.051 396.755 312.467 399.122 309.25 405.26C306.033 411.397 308.4 418.98 314.538 422.198Z" stroke="#F5F7F8" stroke-width="1.37411" stroke-miterlimit="10" stroke-linecap="round" stroke-linejoin="round" />
	<path d="M226.185 600.123C232.323 603.34 239.906 600.973 243.123 594.835C246.34 588.698 243.973 581.115 237.835 577.897C231.698 574.68 224.115 577.048 220.898 583.185C217.681 589.323 220.048 596.906 226.185 600.123Z" fill="#F5F7F8" />
	<path d="M223.473 595.93C229.611 599.147 237.194 596.78 240.411 590.642C243.628 584.505 241.261 576.922 235.124 573.705C228.986 570.487 221.403 572.855 218.186 578.992C214.969 585.13 217.336 592.713 223.473 595.93Z" stroke="#F5F7F8" stroke-width="1.37411" stroke-miterlimit="10" stroke-linecap="round" stroke-linejoin="round" />
	<path d="M142.323 334.698C148.461 337.915 156.044 335.548 159.261 329.41C162.478 323.273 160.111 315.689 153.973 312.472C147.836 309.255 140.252 311.623 137.035 317.76C133.818 323.898 136.186 331.481 142.323 334.698Z" fill="#F5F7F8" />
	<path d="M139.611 330.505C145.749 333.722 153.332 331.354 156.549 325.217C159.766 319.079 157.399 311.496 151.261 308.279C145.124 305.062 137.54 307.429 134.323 313.567C131.106 319.704 133.474 327.288 139.611 330.505Z" stroke="#F5F7F8" stroke-width="1.37411" stroke-miterlimit="10" stroke-linecap="round" stroke-linejoin="round" />
	<path d="M401.114 691.816C407.252 695.033 414.835 692.665 418.052 686.528C421.269 680.39 418.902 672.807 412.764 669.59C406.627 666.373 399.043 668.74 395.826 674.878C392.609 681.015 394.977 688.599 401.114 691.816Z" fill="#F5F7F8" />
	<path d="M398.402 687.623C404.54 690.841 412.123 688.473 415.34 682.336C418.557 676.198 416.19 668.615 410.052 665.398C403.915 662.181 396.331 664.548 393.114 670.686C389.897 676.823 392.265 684.406 398.402 687.623Z" stroke="#F5F7F8" stroke-width="1.37411" stroke-miterlimit="10" stroke-linecap="round" stroke-linejoin="round" />
	<path d="M51.2567 508.431C57.3941 511.648 64.9775 509.28 68.1945 503.143C71.4116 497.005 69.0442 489.422 62.9067 486.205C56.7693 482.988 49.186 485.355 45.9689 491.493C42.7518 497.63 45.1192 505.214 51.2567 508.431Z" fill="#F5F7F8" />
	<path d="M48.5457 504.237C54.6832 507.455 62.2665 505.087 65.4836 498.95C68.7007 492.812 66.3333 485.229 60.1958 482.012C54.0584 478.795 46.475 481.162 43.258 487.3C40.0409 493.437 42.4083 501.02 48.5457 504.237Z" stroke="#F5F7F8" stroke-width="1.37411" stroke-miterlimit="10" stroke-linecap="round" stroke-linejoin="round" />
</svg>
