<svg width="24" height="24" viewBox="0 0 24 24" fill="none" xmlns="http://www.w3.org/2000/svg">
    <path d="M12 13.75C11.8015 13.7487 11.6115 13.6693 11.4711 13.5289C11.3307 13.3885 11.2513 13.1985 11.25 13V7.75C11.2513 7.55149 11.3307 7.36149 11.4711 7.22112C11.6115 7.08075 11.8015 7.00131 12 7C12.1985 7.00131 12.3885 7.08075 12.5289 7.22112C12.6693 7.36149 12.7487 7.55149 12.75 7.75V13C12.7487 13.1985 12.6693 13.3885 12.5289 13.5289C12.3885 13.6693 12.1985 13.7487 12 13.75Z" fill="#333333"/>
    <path d="M12.0001 17.25C11.8686 17.2516 11.7381 17.2269 11.6162 17.1775C11.4942 17.128 11.3834 17.0548 11.2901 16.962C11.2022 16.8625 11.1281 16.7515 11.0701 16.632C11.0217 16.5106 10.9979 16.3807 11.0001 16.25C11.004 15.9853 11.1076 15.7318 11.2901 15.54C11.4835 15.3616 11.737 15.2625 12.0001 15.2625C12.2633 15.2625 12.5168 15.3616 12.7101 15.54C12.8927 15.7318 12.9963 15.9853 13.0001 16.25C12.9986 16.3807 12.9714 16.5098 12.9201 16.63C12.8694 16.7512 12.7984 16.8628 12.7101 16.96C12.617 17.0532 12.5063 17.1268 12.3844 17.1766C12.2625 17.2264 12.1318 17.2513 12.0001 17.25Z" fill="#333333"/>
    <path d="M12.0002 22.745C11.3157 22.7468 10.6429 22.5674 10.0502 22.225L4.11016 18.795C3.51941 18.4509 3.02875 17.9585 2.68673 17.3666C2.34472 16.7746 2.1632 16.1036 2.16016 15.42V8.57998C2.16233 7.89549 2.34343 7.22346 2.68549 6.63056C3.02755 6.03766 3.51868 5.54449 4.11016 5.19998L10.0502 1.76998C10.6425 1.42611 11.3152 1.245 12.0002 1.245C12.6851 1.245 13.3578 1.42611 13.9502 1.76998L19.8902 5.19998C20.4816 5.54449 20.9728 6.03766 21.3148 6.63056C21.6569 7.22346 21.838 7.89549 21.8402 8.57998V15.42C21.838 16.1045 21.6569 16.7765 21.3148 17.3694C20.9728 17.9623 20.4816 18.4555 19.8902 18.8L13.9502 22.23C13.357 22.5706 12.6842 22.7483 12.0002 22.745ZM12.0002 2.74498C11.5793 2.74686 11.1661 2.85706 10.8002 3.06498L4.86016 6.49998C4.49549 6.71122 4.19271 7.01454 3.98211 7.37957C3.77152 7.74461 3.66049 8.15856 3.66016 8.57998V15.42C3.6618 15.8411 3.77337 16.2546 3.98383 16.6194C4.1943 16.9842 4.49637 17.2877 4.86016 17.5L10.8002 20.93C11.163 21.1412 11.5753 21.2525 11.9952 21.2525C12.415 21.2525 12.8273 21.1412 13.1902 20.93L19.1302 17.5C19.4948 17.2887 19.7976 16.9854 20.0082 16.6204C20.2188 16.2554 20.3298 15.8414 20.3302 15.42V8.57998C20.3285 8.15882 20.2169 7.74538 20.0065 7.38057C19.796 7.01576 19.4939 6.71222 19.1302 6.49998L13.1902 3.06998C12.8288 2.85921 12.4185 2.74713 12.0002 2.74498Z" fill="#333333"/>
    </svg>
    