<svg width="33" height="32" viewBox="0 0 33 32" fill="none" xmlns="http://www.w3.org/2000/svg">
    <path d="M16.5999 30.3333C13.7651 30.3333 10.9939 29.4927 8.63677 27.9177C6.27966 26.3427 4.44252 24.1042 3.35767 21.4851C2.27281 18.866 1.98896 15.9841 2.54202 13.2037C3.09507 10.4233 4.46019 7.86932 6.46474 5.86477C8.4693 3.86022 11.0233 2.4951 13.8036 1.94204C16.584 1.38899 19.466 1.67284 22.0851 2.75769C24.7041 3.84255 26.9427 5.67969 28.5177 8.03679C30.0926 10.3939 30.9333 13.1651 30.9333 16C30.9301 19.8004 29.419 23.4443 26.7316 26.1317C24.0443 28.819 20.4004 30.3301 16.5999 30.3333ZM16.5999 3.66663C14.1606 3.66663 11.7761 4.38997 9.74791 5.74517C7.7197 7.10038 6.13891 9.02658 5.20543 11.2802C4.27195 13.5338 4.02771 16.0136 4.50359 18.4061C4.97947 20.7985 6.15411 22.9961 7.87896 24.7209C9.60381 26.4458 11.8014 27.6204 14.1938 28.0963C16.5863 28.5722 19.0661 28.328 21.3197 27.3945C23.5733 26.461 25.4995 24.8802 26.8547 22.852C28.2099 20.8238 28.9333 18.4393 28.9333 16C28.9294 12.7302 27.6287 9.59538 25.3166 7.28327C23.0045 4.97116 19.8698 3.67051 16.5999 3.66663Z" fill="#FDFDFD"/>
    <path d="M21.9333 17H11.2666C11.0019 16.9983 10.7486 16.8923 10.5614 16.7052C10.3743 16.518 10.2683 16.2647 10.2666 16C10.2683 15.7353 10.3743 15.482 10.5614 15.2948C10.7486 15.1077 11.0019 15.0017 11.2666 15H21.9333C22.1979 15.0017 22.4513 15.1077 22.6384 15.2948C22.8256 15.482 22.9315 15.7353 22.9333 16C22.9315 16.2647 22.8256 16.518 22.6384 16.7052C22.4513 16.8923 22.1979 16.9983 21.9333 17Z" fill="#FDFDFD"/>
    <path d="M16.6001 22.3333C16.3354 22.3315 16.0821 22.2256 15.8949 22.0385C15.7078 21.8513 15.6018 21.598 15.6001 21.3333V10.6666C15.6018 10.4019 15.7078 10.1486 15.8949 9.96145C16.0821 9.77429 16.3354 9.66837 16.6001 9.66663C16.8648 9.66837 17.1181 9.77429 17.3053 9.96145C17.4924 10.1486 17.5984 10.4019 17.6001 10.6666V21.3333C17.5984 21.598 17.4924 21.8513 17.3053 22.0385C17.1181 22.2256 16.8648 22.3315 16.6001 22.3333Z" fill="#FDFDFD"/>
    </svg>
    