<svg width="24" height="24" viewBox="0 0 24 24" fill="none" xmlns="http://www.w3.org/2000/svg">
	<path d="M19.2727 12C19.2727 12.2509 19.0691 12.4545 18.8182 12.4545H17V14.2727C17 14.5236 16.7964 14.7273 16.5455 14.7273C16.2945 14.7273 16.0909 14.5236 16.0909 14.2727V12.4545H14.2727C14.0218 12.4545 13.8182 12.2509 13.8182 12C13.8182 11.7491 14.0218 11.5455 14.2727 11.5455H16.0909V9.72727C16.0909 9.47636 16.2945 9.27273 16.5455 9.27273C16.7964 9.27273 17 9.47636 17 9.72727V11.5455H18.8182C19.0691 11.5455 19.2727 11.7491 19.2727 12ZM12 12C12 14.2482 11.6218 16.5455 8.81818 16.5455C6.01455 16.5455 5.63636 14.2482 5.63636 12C5.63636 9.75182 6.01455 7.45455 8.81818 7.45455C11.6218 7.45455 12 9.75182 12 12ZM11.0909 12C11.0909 8.97182 10.2209 8.36364 8.81818 8.36364C7.41545 8.36364 6.54545 8.97182 6.54545 12C6.54545 15.0282 7.41545 15.6364 8.81818 15.6364C10.2209 15.6364 11.0909 15.0282 11.0909 12ZM22 12C22 19.1027 19.1027 22 12 22C4.89727 22 2 19.1027 2 12C2 4.89727 4.89727 2 12 2C19.1027 2 22 4.89727 22 12ZM21.0909 12C21.0909 5.45818 18.5418 2.90909 12 2.90909C5.45818 2.90909 2.90909 5.45818 2.90909 12C2.90909 18.5418 5.45818 21.0909 12 21.0909C18.5418 21.0909 21.0909 18.5418 21.0909 12Z" fill="#8295A5" />
</svg>
