<svg width="20" height="20" viewBox="0 0 20 20" fill="none" xmlns="http://www.w3.org/2000/svg">
    <path d="M5.99681 10.0008C5.99672 9.70204 6.05556 9.40621 6.16995 9.13023C6.28435 8.85424 6.45206 8.60354 6.66348 8.39246L12.0993 2.95913C12.2182 2.85099 12.3741 2.79279 12.5348 2.79663C12.6955 2.80046 12.8485 2.86603 12.962 2.97971C13.0756 3.0934 13.141 3.24647 13.1447 3.40713C13.1484 3.56779 13.0901 3.72369 12.9818 3.84246L7.54931 9.27746C7.35716 9.46981 7.24923 9.73058 7.24923 10.0025C7.24923 10.2743 7.35716 10.5351 7.54931 10.7275L12.9826 16.1608C13.093 16.2793 13.1532 16.436 13.1503 16.5979C13.1474 16.7598 13.0818 16.9143 12.9673 17.0288C12.8528 17.1433 12.6983 17.2089 12.5364 17.2118C12.3745 17.2146 12.2178 17.1545 12.0993 17.0441L6.66348 11.6108C6.45186 11.3995 6.28404 11.1485 6.16963 10.8723C6.05523 10.596 5.9965 10.2998 5.99681 10.0008Z" fill="#333333"/>
    </svg>
    