<svg width="25" height="25" viewBox="0 0 25 25" fill="none" xmlns="http://www.w3.org/2000/svg">
    <path d="M5.1598 1.993H5.63986C6.95201 1.993 7.84811 2.01701 8.32816 2.06501C9.11225 2.12902 9.76033 2.28904 10.2724 2.54506C10.9605 2.89711 11.5445 3.38516 12.0246 4.00923C12.4886 3.38516 13.0647 2.89711 13.7528 2.54506C14.2648 2.28904 14.9129 2.12902 15.697 2.06501C16.1771 2.01701 17.0732 1.993 18.3853 1.993H18.8654C19.5215 1.993 19.9695 2.009 20.2095 2.04101C20.6736 2.07301 21.0656 2.16902 21.3857 2.32904C21.9617 2.63308 22.4018 3.07313 22.7058 3.64919C22.8658 3.95323 22.9618 4.33727 22.9938 4.80132C23.0098 5.05735 23.0179 5.51341 23.0179 6.16948V14.8585C23.0179 15.5146 23.0098 15.9626 22.9938 16.2026C22.9618 16.6827 22.8658 17.0747 22.7058 17.3788C22.4018 17.9548 21.9617 18.3949 21.3857 18.6989C21.0656 18.8589 20.6736 18.9549 20.2095 18.987C19.9695 19.003 19.5215 19.011 18.8654 19.011H17.4492C16.7451 19.011 16.2651 19.019 16.009 19.035C15.721 19.051 15.481 19.091 15.289 19.155C14.9049 19.267 14.5609 19.451 14.2568 19.707C14.0968 19.835 13.9288 20.0191 13.7528 20.2591C13.6088 20.4511 13.3367 20.8432 12.9367 21.4352L12.8407 21.5792C12.7447 21.7233 12.6247 21.8353 12.4806 21.9153C12.3366 21.9953 12.1806 22.0353 12.0126 22.0353C11.8446 22.0353 11.6885 21.9953 11.5445 21.9153C11.4005 21.8353 11.2805 21.7233 11.1845 21.5792L11.0885 21.4352C10.6884 20.8432 10.4164 20.4511 10.2724 20.2591C10.0964 20.0191 9.92835 19.835 9.76833 19.707C9.4643 19.451 9.12026 19.267 8.73621 19.155C8.54419 19.091 8.30416 19.051 8.01613 19.035C7.7601 19.019 7.28004 19.011 6.57596 19.011H5.1598C4.50373 19.011 4.05567 19.003 3.81565 18.987C3.35159 18.9549 2.95955 18.8589 2.63951 18.6989C2.06345 18.3949 1.62339 17.9548 1.31936 17.3788C1.15934 17.0587 1.06333 16.6667 1.03133 16.2026C1.01533 15.9626 1.00732 15.5146 1.00732 14.8585V6.16948C1.00732 5.51341 1.01533 5.05735 1.03133 4.80132C1.06333 4.33727 1.15934 3.95323 1.31936 3.64919C1.62339 3.07313 2.06345 2.63308 2.63951 2.32904C2.95955 2.16902 3.35159 2.07301 3.81565 2.04101C4.05567 2.009 4.50373 1.993 5.1598 1.993ZM11.0165 9.40985C11.0165 8.12971 11.0005 7.28161 10.9685 6.86556C10.9205 6.3215 10.8245 5.91345 10.6804 5.64142C10.3924 5.06536 9.95235 4.62531 9.36028 4.32127C9.08825 4.19325 8.68821 4.10524 8.16015 4.05724C7.7441 4.02524 6.896 4.00923 5.61585 4.00923H5.20781C4.56773 4.00923 4.15169 4.01723 3.95966 4.03324C3.76764 4.04924 3.63163 4.07324 3.55162 4.10524C3.35959 4.21726 3.21558 4.36927 3.11957 4.5613C3.07156 4.62531 3.03956 4.75732 3.02356 4.95734C3.00755 5.15737 2.99955 5.57741 2.99955 6.21749V14.8105C2.99955 15.4505 3.00755 15.8666 3.02356 16.0586C3.03956 16.2506 3.07156 16.3867 3.11957 16.4667C3.21558 16.6587 3.35959 16.8107 3.55162 16.9227C3.63163 16.9547 3.76764 16.9787 3.95966 16.9947C4.15169 17.0107 4.56773 17.0187 5.20781 17.0187H6.71998C7.40806 17.0187 7.89611 17.0267 8.18415 17.0427C8.6162 17.0747 8.99224 17.1387 9.31228 17.2348C9.93635 17.4268 10.5044 17.7228 11.0165 18.1229V9.40985ZM13.0087 18.1229C13.5208 17.7228 14.0888 17.4268 14.7129 17.2348C15.0329 17.1387 15.409 17.0747 15.841 17.0427C16.1291 17.0267 16.6171 17.0187 17.3052 17.0187H18.8174C19.4574 17.0187 19.8735 17.0107 20.0655 16.9947C20.2575 16.9787 20.3935 16.9547 20.4736 16.9227C20.6656 16.8107 20.8096 16.6587 20.9056 16.4667C20.9536 16.3867 20.9856 16.2506 21.0016 16.0586C21.0176 15.8666 21.0256 15.4505 21.0256 14.8105V6.21749C21.0256 5.57741 21.0176 5.16137 21.0016 4.96934C20.9856 4.77732 20.9536 4.64131 20.9056 4.5613C20.8096 4.36927 20.6656 4.21726 20.4736 4.10524C20.3935 4.07324 20.2575 4.04924 20.0655 4.03324C19.6495 4.00123 19.2334 3.99323 18.8174 4.00923H18.4093C17.1292 4.00923 16.2811 4.02524 15.865 4.05724C15.337 4.10524 14.9369 4.19325 14.6649 4.32127C14.0728 4.62531 13.6328 5.06536 13.3447 5.64142C13.2007 5.92945 13.1047 6.3375 13.0567 6.86556C13.0247 7.28161 13.0087 8.12971 13.0087 9.40985V18.1229Z" fill="#E5B93E"/>
    </svg>
    