<svg width="24" height="24" viewBox="0 0 24 24" fill="none" xmlns="http://www.w3.org/2000/svg">
	<g clip-path="url(#clip0_16908_8372)">
		<path d="M0.456937 8.04448L1.63776 15.64C1.72974 16.2317 2.23916 16.668 2.83792 16.668H21.3611C21.9683 16.668 22.4823 16.2195 22.5645 15.6178L23.5843 8.14949C23.7333 7.05842 22.4699 6.34812 21.6151 7.04241L18.7212 9.39301C18.1565 9.85171 17.3179 9.7144 16.929 9.09953L12.9247 2.76906C12.4261 1.98086 11.262 2.02541 10.8251 2.84942L7.56267 9.00288C7.21373 9.66103 6.35999 9.85286 5.76304 9.40725L2.38365 6.8846C1.51179 6.23378 0.289805 6.96942 0.456937 8.04448Z" fill="#E5B93E" />
		<path d="M21.2065 18.3441H3.01215C2.34135 18.3441 1.79757 18.8879 1.79757 19.5587V20.4575C1.79757 21.1283 2.34136 21.6721 3.01215 21.6721H21.2065C21.8773 21.6721 22.4211 21.1283 22.4211 20.4575V19.5587C22.4211 18.8879 21.8773 18.3441 21.2065 18.3441Z" fill="#E5B93E" />
	</g>
	<defs>
		<clipPath id="clip0_16908_8372">
			<rect width="24" height="24" fill="white" />
		</clipPath>
	</defs>
</svg>
