<svg width="20" height="20" viewBox="0 0 20 20" fill="none" xmlns="http://www.w3.org/2000/svg">
	<path d="M4.61647 16.2666C4.12704 16.276 3.65271 16.097 3.29147 15.7666C3.07157 15.5484 2.90578 15.2818 2.80738 14.988C2.70898 14.6943 2.68071 14.3816 2.72481 14.075L3.03314 11.375C3.11944 10.7989 3.37133 10.2604 3.75814 9.82496L10.5998 2.58329C12.3081 0.77496 14.0915 0.72496 15.8998 2.43329C17.7081 4.14163 17.7581 5.92496 16.0498 7.73329L9.20981 14.975C8.79617 15.3851 8.27207 15.666 7.70147 15.7833L5.01814 16.2416C4.87647 16.25 4.74981 16.2666 4.61647 16.2666ZM13.2748 2.42496C12.9275 2.46155 12.5914 2.56922 12.2875 2.74125C11.9836 2.91329 11.7183 3.14601 11.5081 3.42496L4.66647 10.675C4.4704 10.9169 4.336 11.2029 4.27481 11.5083L3.96647 14.2083C3.94403 14.3221 3.94895 14.4397 3.98082 14.5512C4.0127 14.6628 4.07062 14.7652 4.14981 14.85C4.23924 14.9234 4.34445 14.9752 4.45721 15.0012C4.56998 15.0272 4.68724 15.0268 4.79981 15L7.48314 14.5416C7.78451 14.4669 8.06238 14.3179 8.29147 14.1083L15.1331 6.86663C16.1665 5.76663 16.5415 4.74996 15.0331 3.33329C14.5873 2.81355 13.9567 2.48777 13.2748 2.42496Z" fill="#232323" />
	<path d="M14.4499 9.12571H14.3916C13.1286 9.00198 11.9427 8.46148 11.0208 7.58939C10.0989 6.71729 9.49348 5.56321 9.29989 4.30904C9.27631 4.14466 9.31807 3.97758 9.4162 3.84361C9.51434 3.70965 9.66105 3.61946 9.82489 3.59237C9.98928 3.56879 10.1564 3.61055 10.2903 3.70868C10.4243 3.80682 10.5145 3.95353 10.5416 4.11737C10.6941 5.09791 11.1682 5.99996 11.8892 6.68177C12.6102 7.36357 13.5374 7.78648 14.5249 7.88404C14.6893 7.90109 14.8404 7.98253 14.945 8.11056C15.0496 8.23859 15.0993 8.40282 15.0832 8.56737C15.0624 8.72102 14.9869 8.86203 14.8706 8.96457C14.7543 9.0671 14.6049 9.12431 14.4499 9.12571Z" fill="#232323" />
</svg>
