<svg width="24" height="24" viewBox="0 0 24 24" fill="none" xmlns="http://www.w3.org/2000/svg">
<path d="M15 22.75H9C3.57 22.75 1.25 20.43 1.25 15V9C1.25 3.57 3.57 1.25 9 1.25H11C11.1985 1.25131 11.3885 1.33075 11.5289 1.47112C11.6693 1.61149 11.7487 1.80149 11.75 2C11.7487 2.19851 11.6693 2.38851 11.5289 2.52888C11.3885 2.66925 11.1985 2.74869 11 2.75H9C4.39 2.75 2.75 4.39 2.75 9V15C2.75 19.61 4.39 21.25 9 21.25H15C19.61 21.25 21.25 19.61 21.25 15V13C21.25 12.8011 21.329 12.6103 21.4697 12.4697C21.6103 12.329 21.8011 12.25 22 12.25C22.1989 12.25 22.3897 12.329 22.5303 12.4697C22.671 12.6103 22.75 12.8011 22.75 13V15C22.75 20.43 20.43 22.75 15 22.75Z" fill="#333333"/>
<path d="M8.50115 17.6901C7.91353 17.6988 7.34604 17.4761 6.92115 17.0701C6.67634 16.8144 6.49532 16.5045 6.3928 16.1657C6.29029 15.8268 6.26916 15.4686 6.33115 15.1201L6.76115 12.1101C6.87921 11.4589 7.18109 10.8552 7.63115 10.3701L15.5112 2.49006C17.5012 0.500059 19.5212 0.500059 21.5112 2.49006C21.9908 2.89502 22.373 3.40293 22.6292 3.97601C22.8855 4.54908 23.0092 5.17256 22.9912 5.80006C22.8305 6.84037 22.3061 7.78999 21.5112 8.48006L13.6312 16.3601C13.146 16.8101 12.5423 17.112 11.8912 17.2301L8.88115 17.6601C8.75605 17.6845 8.62855 17.6946 8.50115 17.6901ZM16.5712 3.55006L8.69115 11.4301C8.46966 11.6848 8.31501 11.9907 8.24115 12.3201L7.81115 15.3301C7.78487 15.4488 7.78654 15.5721 7.81604 15.6901C7.84555 15.8081 7.90207 15.9176 7.98115 16.0101C8.07358 16.0891 8.18312 16.1457 8.30113 16.1752C8.41914 16.2047 8.54239 16.2063 8.66115 16.1801L11.6712 15.7501C12.0013 15.6783 12.3077 15.5234 12.5612 15.3001L20.4412 7.42006C20.9807 6.96694 21.3479 6.34195 21.4812 5.65006C21.4729 5.24366 21.3754 4.84405 21.1957 4.47945C21.016 4.11485 20.7584 3.79417 20.4412 3.54006C18.8402 1.93906 17.7402 2.39006 16.5702 3.55006H16.5712Z" fill="#333333"/>
<path d="M19.85 9.83011C19.7822 9.83069 19.7147 9.82057 19.65 9.80011C18.3504 9.43006 17.1668 8.73433 16.2113 7.77884C15.2558 6.82335 14.5601 5.63973 14.19 4.34011C14.1374 4.14788 14.1625 3.94268 14.2597 3.76873C14.357 3.59478 14.5187 3.46599 14.71 3.41011C14.8046 3.38354 14.9034 3.37592 15.0009 3.3877C15.0984 3.39948 15.1927 3.43043 15.2782 3.47875C15.3637 3.52708 15.4388 3.59184 15.4992 3.6693C15.5595 3.74676 15.604 3.8354 15.63 3.93011C15.9296 4.98219 16.4928 5.94037 17.2663 6.71386C18.0398 7.48736 18.9979 8.05056 20.05 8.35011C20.2421 8.40485 20.4046 8.53344 20.502 8.70773C20.5995 8.88203 20.6239 9.08784 20.57 9.28011C20.5285 9.43896 20.4351 9.57937 20.3047 9.67903C20.1742 9.77869 20.0142 9.83187 19.85 9.83011Z" fill="#333333"/>
</svg>
