<svg width="22" height="22" viewBox="0 0 22 22" fill="none" xmlns="http://www.w3.org/2000/svg">
	<path d="M10.084 1.83331H8.25065C3.66732 1.83331 1.83398 3.66665 1.83398 8.24998V13.75C1.83398 18.3333 3.66732 20.1666 8.25065 20.1666H13.7507C18.334 20.1666 20.1673 18.3333 20.1673 13.75V11.9166" stroke="#333333" stroke-width="1.375" stroke-linecap="round" stroke-linejoin="round" />
	<path d="M14.7027 2.76814L7.4794 9.99147C7.2044 10.2665 6.9294 10.8073 6.8744 11.2015L6.48023 13.9606C6.33357 14.9598 7.0394 15.6565 8.03857 15.519L10.7977 15.1248C11.1827 15.0698 11.7236 14.7948 12.0077 14.5198L19.2311 7.29647C20.4777 6.0498 21.0644 4.60147 19.2311 2.76814C17.3977 0.934804 15.9494 1.52147 14.7027 2.76814Z" stroke="#333333" stroke-width="1.375" stroke-miterlimit="10" stroke-linecap="round" stroke-linejoin="round" />
	<path d="M13.668 3.80408C13.9719 4.88342 14.5479 5.86664 15.3408 6.65954C16.1337 7.45243 17.117 8.02845 18.1963 8.33241" stroke="#333333" stroke-width="1.375" stroke-miterlimit="10" stroke-linecap="round" stroke-linejoin="round" />
</svg>
