<svg width="24" height="24" viewBox="0 0 24 24" fill="none" xmlns="http://www.w3.org/2000/svg">
    <path d="M5.54036 19.52C4.95303 19.5312 4.38383 19.3164 3.95036 18.92C3.68647 18.6581 3.48752 18.3382 3.36945 17.9857C3.25137 17.6332 3.21743 17.2579 3.27036 16.89L3.64036 13.65C3.74391 12.9588 4.04618 12.3125 4.51036 11.79L12.7204 3.09999C14.7704 0.929988 16.9104 0.869988 19.0804 2.91999C21.2504 4.96999 21.3104 7.10999 19.2604 9.27999L11.0524 17.97C10.556 18.4622 9.92707 18.7992 9.24236 18.94L6.02236 19.49C5.85236 19.5 5.70036 19.52 5.54036 19.52ZM15.9304 2.90999C15.5136 2.9539 15.1103 3.08309 14.7456 3.28954C14.3809 3.49598 14.0625 3.77525 13.8104 4.10999L5.60036 12.81C5.36507 13.1004 5.20378 13.4435 5.13036 13.81L4.76036 17.05C4.73342 17.1866 4.73933 17.3276 4.77757 17.4615C4.81582 17.5954 4.88532 17.7182 4.98036 17.82C5.08767 17.9081 5.21392 17.9703 5.34924 18.0015C5.48456 18.0327 5.62527 18.0322 5.76036 18L8.98036 17.45C9.34199 17.3603 9.67545 17.1815 9.95036 16.93L18.1604 8.23999C19.4004 6.91999 19.8504 5.69999 18.0404 3.99999C17.5054 3.37629 16.7486 2.98536 15.9304 2.90999Z" fill="white"/>
    <path d="M17.3401 10.95H17.2701C15.7545 10.8015 14.3314 10.1529 13.2252 9.10641C12.1189 8.0599 11.3924 6.675 11.1601 5.17C11.1318 4.97274 11.1819 4.77225 11.2996 4.61149C11.4174 4.45073 11.5935 4.3425 11.7901 4.31C11.9873 4.2817 12.1878 4.33181 12.3486 4.44957C12.5093 4.56734 12.6176 4.74339 12.6501 4.94C12.8332 6.11665 13.402 7.19911 14.2673 8.01727C15.1325 8.83544 16.245 9.34293 17.4301 9.46C17.6274 9.48046 17.8086 9.57818 17.9342 9.73182C18.0597 9.88546 18.1194 10.0825 18.1001 10.28C18.0751 10.4644 17.9845 10.6336 17.8449 10.7566C17.7054 10.8797 17.5261 10.9483 17.3401 10.95Z" fill="white"/>
    </svg>
    