<svg width="16" height="14" viewBox="0 0 16 14" fill="none" xmlns="http://www.w3.org/2000/svg">
	<path d="M8 10.2474C6.2075 10.2474 4.7525 8.79244 4.7525 6.99994C4.7525 5.20744 6.2075 3.75244 8 3.75244C9.7925 3.75244 11.2475 5.20744 11.2475 6.99994C11.2475 8.79244 9.7925 10.2474 8 10.2474ZM8 4.87744C6.83 4.87744 5.8775 5.82994 5.8775 6.99994C5.8775 8.16994 6.83 9.12244 8 9.12244C9.17 9.12244 10.1225 8.16994 10.1225 6.99994C10.1225 5.82994 9.17 4.87744 8 4.87744Z" fill="#A8B1CE" />
	<path d="M8 13.765C5.18 13.765 2.5175 12.115 0.6875 9.24999C-0.1075 8.01249 -0.1075 5.99499 0.6875 4.74999C2.525 1.88499 5.1875 0.234985 8 0.234985C10.8125 0.234985 13.475 1.88499 15.305 4.74999C16.1 5.98749 16.1 8.00499 15.305 9.24999C13.475 12.115 10.8125 13.765 8 13.765ZM8 1.35999C5.5775 1.35999 3.26 2.81499 1.64 5.35749C1.0775 6.23499 1.0775 7.76498 1.64 8.64248C3.26 11.185 5.5775 12.64 8 12.64C10.4225 12.64 12.74 11.185 14.36 8.64248C14.9225 7.76498 14.9225 6.23499 14.36 5.35749C12.74 2.81499 10.4225 1.35999 8 1.35999Z" fill="#A8B1CE" />
</svg>
