<svg width="24" height="24" viewBox="0 0 24 24" fill="none" xmlns="http://www.w3.org/2000/svg">
	<path d="M9.46998 15.28C9.37145 15.2803 9.27385 15.2611 9.18285 15.2233C9.09185 15.1855 9.00929 15.13 8.93998 15.06C8.53813 14.6581 8.21937 14.1811 8.0019 13.656C7.78442 13.131 7.67249 12.5683 7.67249 12C7.67249 11.4317 7.78442 10.869 8.0019 10.3439C8.21937 9.81888 8.53813 9.34182 8.93998 8.93998C9.34182 8.53813 9.81888 8.21937 10.3439 8.0019C10.869 7.78442 11.4317 7.67249 12 7.67249C12.5683 7.67249 13.131 7.78442 13.656 8.0019C14.1811 8.21937 14.6581 8.53813 15.06 8.93998C15.1298 9.00948 15.1851 9.09207 15.2229 9.18302C15.2607 9.27397 15.2801 9.37149 15.2801 9.46998C15.2801 9.56847 15.2607 9.66598 15.2229 9.75693C15.1851 9.84789 15.1298 9.93048 15.06 9.99998L9.99998 15.06C9.93067 15.13 9.8481 15.1855 9.75711 15.2233C9.66611 15.2611 9.5685 15.2803 9.46998 15.28ZM12 9.16998C11.5047 9.17018 11.0182 9.3003 10.589 9.54733C10.1598 9.79435 9.80287 10.1497 9.5539 10.5778C9.30494 11.0059 9.17263 11.4918 9.17018 11.987C9.16774 12.4822 9.29525 12.9694 9.53998 13.4L13.4 9.53998C12.9735 9.29672 12.4909 9.16917 12 9.16998Z" fill="#666666" />
	<path d="M5.59995 18.51C5.4205 18.5096 5.24695 18.4459 5.10995 18.33C3.99685 17.3707 3.0359 16.2479 2.25995 15C1.73895 14.086 1.46497 13.052 1.46497 12C1.46497 10.9479 1.73895 9.91399 2.25995 8.99998C4.69995 5.17998 8.24995 2.97998 11.9999 2.97998C14.2729 3.00619 16.4749 3.77531 18.2699 5.16998C18.4291 5.28933 18.5343 5.467 18.5624 5.66391C18.5905 5.86083 18.5393 6.06085 18.4199 6.21998C18.3006 6.37911 18.1229 6.48431 17.926 6.51244C17.7291 6.54057 17.5291 6.48933 17.3699 6.36998C15.8351 5.16904 13.9486 4.50506 11.9999 4.47998C8.76995 4.47998 5.67995 6.41998 3.51995 9.80998C3.1509 10.4809 2.95738 11.2342 2.95738 12C2.95738 12.7657 3.1509 13.519 3.51995 14.19C4.22447 15.308 5.08669 16.3184 6.07995 17.19C6.23011 17.3206 6.32273 17.5051 6.33771 17.7035C6.35268 17.902 6.28881 18.0983 6.15995 18.25C6.09145 18.3318 6.00576 18.3975 5.90896 18.4425C5.81217 18.4874 5.70666 18.5105 5.59995 18.51Z" fill="#666666" />
	<path d="M12 21.02C10.6659 21.0182 9.34597 20.7461 8.11996 20.22C8.02935 20.1819 7.94713 20.1264 7.87799 20.0565C7.80885 19.9866 7.75414 19.9039 7.717 19.8129C7.67986 19.7219 7.661 19.6244 7.66151 19.5261C7.66202 19.4278 7.68188 19.3306 7.71996 19.24C7.75805 19.1494 7.81361 19.0672 7.88347 18.998C7.95333 18.9289 8.03612 18.8742 8.12712 18.837C8.21812 18.7999 8.31555 18.781 8.41384 18.7816C8.51213 18.7821 8.60935 18.8019 8.69996 18.84C9.73959 19.2861 10.8587 19.5174 11.99 19.52C15.22 19.52 18.31 17.58 20.47 14.19C20.839 13.5191 21.0325 12.7657 21.0325 12C21.0325 11.2343 20.839 10.4809 20.47 9.81001C20.1619 9.32335 19.8246 8.85583 19.46 8.41001C19.3356 8.2542 19.2775 8.05578 19.298 7.8575C19.3186 7.65922 19.4163 7.47697 19.57 7.35001C19.6466 7.28718 19.7349 7.24016 19.8298 7.21167C19.9247 7.18318 20.0243 7.17377 20.1229 7.184C20.2215 7.19423 20.317 7.22389 20.4041 7.27126C20.4911 7.31864 20.5679 7.38279 20.63 7.46001C21.0303 7.95077 21.401 8.46502 21.74 9.00001C22.261 9.91401 22.5349 10.9479 22.5349 12C22.5349 13.0521 22.261 14.086 21.74 15C19.3 18.82 15.75 21.02 12 21.02Z" fill="#666666" />
	<path d="M12.69 16.27C12.5152 16.2692 12.3461 16.208 12.2113 16.0969C12.0764 15.9857 11.9841 15.8314 11.95 15.66C11.9307 15.5633 11.931 15.4638 11.9509 15.3672C11.9708 15.2707 12.0099 15.1791 12.0658 15.098C12.1218 15.0168 12.1935 14.9478 12.2767 14.8948C12.3598 14.8419 12.4528 14.8063 12.55 14.79C13.0984 14.6816 13.6022 14.4128 13.9975 14.0175C14.3928 13.6222 14.6616 13.1184 14.77 12.57C14.8083 12.3743 14.9221 12.2017 15.0868 12.0894C15.2516 11.9771 15.4539 11.9342 15.65 11.97C15.7473 11.9881 15.8401 12.0253 15.9229 12.0794C16.0058 12.1335 16.0772 12.2034 16.133 12.2852C16.1887 12.367 16.2278 12.459 16.2479 12.5559C16.2679 12.6528 16.2687 12.7528 16.25 12.85C16.0887 13.6973 15.6763 14.4765 15.0664 15.0864C14.4565 15.6963 13.6773 16.1087 12.83 16.27C12.7834 16.265 12.7365 16.265 12.69 16.27Z" fill="#666666" />
	<path d="M2.00002 22.75C1.9015 22.7503 1.80389 22.7311 1.71289 22.6933C1.6219 22.6555 1.53933 22.6 1.47002 22.53C1.33054 22.3888 1.25232 22.1984 1.25232 22C1.25232 21.8015 1.33054 21.6111 1.47002 21.47L8.94002 14.001C9.0822 13.8685 9.27024 13.7964 9.46454 13.7998C9.65884 13.8032 9.84423 13.8819 9.98164 14.0194C10.1191 14.1568 10.1978 14.3422 10.2012 14.5365C10.2046 14.7308 10.1325 14.9188 10 15.061L2.53002 22.531C2.46063 22.6008 2.37803 22.6561 2.28703 22.6937C2.19604 22.7313 2.09847 22.7505 2.00002 22.75Z" fill="#666666" />
	<path d="M14.53 10.221C14.4315 10.2214 14.3339 10.2021 14.2429 10.1643C14.1519 10.1265 14.0693 10.071 14 10.001C13.8605 9.85987 13.7823 9.66944 13.7823 9.47101C13.7823 9.27258 13.8605 9.08214 14 8.94101L21.47 1.47101C21.6122 1.33853 21.8002 1.2664 21.9945 1.26983C22.1888 1.27326 22.3742 1.35197 22.5116 1.48938C22.649 1.6268 22.7277 1.81218 22.7312 2.00648C22.7346 2.20078 22.6625 2.38883 22.53 2.53101L15.06 10.001C14.9907 10.071 14.9081 10.1265 14.8171 10.1643C14.7261 10.2021 14.6285 10.2214 14.53 10.221Z" fill="#666666" />
</svg>
