<svg width="24" height="24" viewBox="0 0 24 24" fill="none" xmlns="http://www.w3.org/2000/svg">
	<path d="M12 21.65C11.7081 21.6555 11.4173 21.6116 11.14 21.52C7.32001 20.21 1.25001 15.56 1.25001 8.69003C1.24709 7.01286 1.90999 5.4031 3.09312 4.21435C4.27625 3.0256 5.88284 2.35506 7.56001 2.35003C8.38518 2.34656 9.20279 2.50748 9.9651 2.8234C10.7274 3.13931 11.4192 3.60389 12 4.19003C12.5808 3.60389 13.2726 3.13931 14.0349 2.8234C14.7972 2.50748 15.6148 2.34656 16.44 2.35003C18.1166 2.35691 19.7221 3.02804 20.9049 4.21639C22.0876 5.40474 22.7511 7.01342 22.75 8.69003C22.75 15.57 16.68 20.21 12.86 21.52C12.5827 21.6116 12.292 21.6555 12 21.65ZM7.56001 3.85003C6.28083 3.85559 5.05607 4.36826 4.15437 5.27559C3.25266 6.18292 2.74761 7.41084 2.75001 8.69003C2.75001 15.52 9.32001 19.32 11.63 20.11C11.8764 20.17 12.1336 20.17 12.38 20.11C14.68 19.32 21.26 15.53 21.26 8.69003C21.2624 7.41084 20.7574 6.18292 19.8557 5.27559C18.9539 4.36826 17.7292 3.85559 16.45 3.85003C15.7025 3.84849 14.9651 4.02337 14.2978 4.36047C13.6306 4.69756 13.0523 5.18736 12.61 5.79003C12.5374 5.8791 12.4459 5.95089 12.3421 6.00019C12.2384 6.0495 12.1249 6.07508 12.01 6.07508C11.8951 6.07508 11.7817 6.0495 11.6779 6.00019C11.5741 5.95089 11.4826 5.8791 11.41 5.79003C10.9656 5.18711 10.3855 4.6973 9.71669 4.36026C9.04782 4.02322 8.30899 3.84843 7.56001 3.85003Z" fill="#666666" />
</svg>
