<svg width="26" height="26" viewBox="0 0 26 26" fill="none" xmlns="http://www.w3.org/2000/svg">
	<path d="M12.9999 22.9717C12.6983 22.9774 12.3978 22.9319 12.1113 22.8374C8.16394 21.4837 1.89161 16.6787 1.89161 9.57971C1.88859 7.84663 2.5736 6.18322 3.79616 4.95484C5.01872 3.72646 6.67887 3.03358 8.41194 3.02838C9.26463 3.02479 10.1095 3.19108 10.8972 3.51752C11.6849 3.84397 12.3997 4.32403 12.9999 4.92971C13.6001 4.32403 14.315 3.84397 15.1027 3.51752C15.8904 3.19108 16.7353 3.02479 17.5879 3.02838C19.3204 3.03549 20.9795 3.72898 22.2016 4.95694C23.4238 6.18491 24.1094 7.84721 24.1083 9.57971C24.1083 16.689 17.8359 21.4837 13.8886 22.8374C13.6021 22.9319 13.3016 22.9774 12.9999 22.9717ZM8.41194 4.57838C7.09013 4.58412 5.82454 5.11388 4.89278 6.05145C3.96101 6.98903 3.43914 8.25788 3.44161 9.57971C3.44161 16.6374 10.2306 20.564 12.6176 21.3804C12.8722 21.4424 13.138 21.4424 13.3926 21.3804C15.7693 20.564 22.5686 16.6477 22.5686 9.57971C22.5711 8.25788 22.0492 6.98903 21.1174 6.05145C20.1857 5.11388 18.9201 4.58412 17.5983 4.57838C16.8258 4.57678 16.0638 4.7575 15.3744 5.10583C14.6849 5.45416 14.0873 5.96028 13.6303 6.58304C13.5553 6.67508 13.4607 6.74926 13.3535 6.80021C13.2462 6.85116 13.129 6.87759 13.0103 6.87759C12.8916 6.87759 12.7743 6.85116 12.6671 6.80021C12.5598 6.74926 12.4653 6.67508 12.3903 6.58304C11.9311 5.96002 11.3317 5.45389 10.6405 5.10562C9.94935 4.75734 9.18589 4.57672 8.41194 4.57838Z" fill="#F55157"/>
	</svg>
	