<svg width="26" height="26" viewBox="0 0 26 26" fill="none" xmlns="http://www.w3.org/2000/svg">
    <path d="M17.7358 3.50671C16.8158 3.50787 15.9088 3.72346 15.0867 4.13636C14.2646 4.54926 13.5501 5.14812 12.9998 5.88538C12.2534 4.88602 11.2104 4.14788 10.0197 3.77622C8.82899 3.40455 7.55133 3.41835 6.36893 3.81564C5.18653 4.21292 4.15976 4.97342 3.43505 5.98866C2.71035 7.0039 2.32471 8.22205 2.33314 9.46938C2.33108 10.6681 2.51828 11.8597 2.88781 13C4.57314 18.3334 9.76781 21.5227 12.3385 22.3974C12.7701 22.5254 13.2295 22.5254 13.6611 22.3974C16.2318 21.5227 21.4265 18.3334 23.1118 13C23.4813 11.8597 23.6685 10.6681 23.6665 9.46938C23.6687 8.68841 23.5171 7.91466 23.2202 7.1923C22.9234 6.46995 22.4871 5.81316 21.9364 5.25945C21.3856 4.70573 20.7312 4.26595 20.0105 3.96521C19.2897 3.66447 18.5168 3.50867 17.7358 3.50671Z" fill="#F55157"/>
    </svg>
    