<svg width="24" height="24" viewBox="0 0 24 24" fill="none" xmlns="http://www.w3.org/2000/svg">
	<g clip-path="url(#clip0_16864_14374)">
		<path d="M23.12 11.88C21.99 10.75 20.01 10.75 18.88 11.88L11.88 18.88C11.31 19.45 11 20.2 11 21V23C11 23.55 11.45 24 12 24H14C14.8 24 15.55 23.69 16.12 23.12L23.12 16.12C23.69 15.55 24 14.8 24 14C24 13.2 23.69 12.45 23.12 11.88ZM21.71 14.71L14.71 21.71C14.52 21.9 14.27 22 14 22H13V21C13 20.74 13.11 20.48 13.29 20.29L20.29 13.29C20.67 12.91 21.33 12.91 21.7 13.29C21.89 13.48 21.99 13.73 21.99 14C21.99 14.27 21.89 14.52 21.7 14.71H21.71ZM14 13.5C14 12.67 13.33 12 12.5 12C11.67 12 11 12.67 11 13.5C11 13.82 11.1 14.17 11.29 14.49C10.97 14.77 10.55 15 10 15C9.56 15 9.12 14.87 8.7 14.66C9.51 13.5 10 12.11 10 11C10 9.35 8.65 8 7 8C5.35 8 4 9.35 4 11C4 12.22 4.68 13.65 5.71 14.8C5.47 14.93 5.23 15 5 15C4.45 15 4 15.45 4 16C4 16.55 4.45 17 5 17C5.83 17 6.61 16.67 7.3 16.15C8.14 16.68 9.06 17 10 17C12.6 17 14 14.52 14 13.5ZM7.13 13.4C6.45 12.61 6 11.68 6 11C6 10.45 6.45 10 7 10C7.55 10 8 10.45 8 11C8 11.72 7.65 12.63 7.13 13.4ZM9 21C9 21.55 8.55 22 8 22H5C2.24 22 0 19.76 0 17V5C0 2.24 2.24 0 5 0H10.76C11.83 0 12.83 0.42 13.59 1.17L16.83 4.41C17.59 5.17 18 6.17 18 7.24V9C18 9.55 17.55 10 17 10C16.45 10 16 9.55 16 9V7.24C16 7.16 16 7.08 15.98 7H13C11.9 7 11 6.1 11 5V2.02C10.92 2.02 10.84 2 10.76 2H5C3.35 2 2 3.35 2 5V17C2 18.65 3.35 20 5 20H8C8.55 20 9 20.45 9 21Z" fill="#333333" />
	</g>
	<defs>
		<clipPath id="clip0_16864_14374">
			<rect width="24" height="24" fill="white" />
		</clipPath>
	</defs>
</svg>
