<svg width="25" height="25" viewBox="0 0 25 25" fill="none" xmlns="http://www.w3.org/2000/svg">
	<g clip-path="url(#clip0_16716_1485)">
		<path fill-rule="evenodd" clip-rule="evenodd" d="M6.64183 10.7322C6.07283 5.63067 9.05278 2.04261 14.6412 -0.000732422C11.2193 4.43986 17.5585 9.25002 17.9086 13.8607C18.7278 12.4627 19.1932 10.5973 19.2851 8.10223C23.4754 14.6761 20.0008 25.4208 10.7794 23.876C9.93269 23.7352 9.1173 23.4674 8.37427 23.0685C5.01107 21.2735 3.00293 17.3608 3.00293 13.6241C3.00293 11.2425 4.02167 9.11706 5.33957 7.42764C5.51555 9.08186 5.89098 10.3157 6.64183 10.7322Z" fill="#EC6F59" />
		<path fill-rule="evenodd" clip-rule="evenodd" d="M9.6257 18.1017C8.6754 15.6477 8.8064 11.6842 11.4676 10.2939C11.4872 14.8499 15.9747 15.4306 15.1437 20.2936C15.9102 19.4254 16.2973 18.0371 16.3658 16.9402C17.582 19.7246 16.6278 21.9517 14.8934 23.0858C9.61983 26.5351 5.07951 19.5427 8.09857 15.7103C8.19047 16.5667 9.23854 17.8885 9.6257 18.1017Z" fill="#FAD15C" />
	</g>
	<defs>
		<clipPath id="clip0_16716_1485">
			<rect width="24.0268" height="24.0268" fill="white" />
		</clipPath>
	</defs>
</svg>
