<svg xmlns="http://www.w3.org/2000/svg" height="24px" viewBox="0 -960 960 960" width="24px" fill="#000000"><path d="M160-320v-160q0-117 67-211t173-129v-40q0-33 23.5-56.5T480-940q33 0 56.5 23.5T560-860v40q106 35 173 129t67 211v160h-80v-160q0-100-70-170t-170-70q-100 0-170 70t-70 170v160H160Zm80 120q-33 0-56.5-23.5T160-280v-80q0-33 23.5-56.5T240-440h80q17 0 28.5 11.5T360-400v160q0 17-11.5 28.5T320-200h-80Zm400 0q-17 0-28.5-11.5T520-240v-160q0-17 11.5-28.5T560-440h80q33 0 56.5 23.5T720-360v80q0 33-23.5 56.5T640-200h-80Z"/></svg>
