<svg width="24" height="24" viewBox="0 0 24 24" fill="none" xmlns="http://www.w3.org/2000/svg">
<path d="M12.0005 21.9998C17.5233 21.9998 22.0005 17.5226 22.0005 11.9998C22.0005 6.47691 17.5233 1.99976 12.0005 1.99976C6.47764 1.99976 2.00049 6.47691 2.00049 11.9998C2.00049 17.5226 6.47764 21.9998 12.0005 21.9998Z" stroke="#333333" stroke-width="1.5" stroke-linecap="round" stroke-linejoin="round"/>
<path d="M9.09033 9.00008C9.32544 8.33175 9.78948 7.76819 10.4003 7.40921C11.0111 7.05024 11.7292 6.91902 12.4275 7.03879C13.1258 7.15857 13.7591 7.52161 14.2154 8.06361C14.6717 8.60561 14.9214 9.2916 14.9203 10.0001C14.9203 12.0001 11.9203 13.0001 11.9203 13.0001" stroke="#333333" stroke-width="1.5" stroke-linecap="round" stroke-linejoin="round"/>
<path d="M12 16.9998H12.01" stroke="#333333" stroke-width="1.5" stroke-linecap="round" stroke-linejoin="round"/>
</svg>
