<svg width="24" height="24" viewBox="0 0 24 24" fill="none" xmlns="http://www.w3.org/2000/svg">
<path fill-rule="evenodd" clip-rule="evenodd" d="M14.2197 2.21967C14.9099 1.52941 15.8844 1.25 17 1.25H19C20.1156 1.25 21.0901 1.52941 21.7803 2.21967C22.4706 2.90993 22.75 3.88439 22.75 5V7C22.75 8.11561 22.4706 9.09007 21.7803 9.78033C21.0901 10.4706 20.1156 10.75 19 10.75H17C15.8844 10.75 14.9099 10.4706 14.2197 9.78033C13.5294 9.09007 13.25 8.11561 13.25 7V5C13.25 3.88439 13.5294 2.90993 14.2197 2.21967ZM15.2803 3.28033C14.9706 3.59007 14.75 4.11561 14.75 5V7C14.75 7.88439 14.9706 8.40993 15.2803 8.71967C15.5901 9.02941 16.1156 9.25 17 9.25H19C19.8844 9.25 20.4099 9.02941 20.7197 8.71967C21.0294 8.40993 21.25 7.88439 21.25 7V5C21.25 4.11561 21.0294 3.59007 20.7197 3.28033C20.4099 2.97059 19.8844 2.75 19 2.75H17C16.1156 2.75 15.5901 2.97059 15.2803 3.28033Z" fill="#6A8094"/>
<path fill-rule="evenodd" clip-rule="evenodd" d="M2.21967 14.2209C2.90993 13.5306 3.88439 13.2512 5 13.2512H7C8.11561 13.2512 9.09007 13.5306 9.78033 14.2209C10.4706 14.9112 10.75 15.8856 10.75 17.0012V19.0012C10.75 20.1168 10.4706 21.0913 9.78033 21.7816C9.09007 22.4718 8.11561 22.7512 7 22.7512H5C3.88439 22.7512 2.90993 22.4718 2.21967 21.7816C1.52941 21.0913 1.25 20.1168 1.25 19.0012V17.0012C1.25 15.8856 1.52941 14.9112 2.21967 14.2209ZM3.28033 15.2816C2.97059 15.5913 2.75 16.1168 2.75 17.0012V19.0012C2.75 19.8856 2.97059 20.4112 3.28033 20.7209C3.59007 21.0306 4.11561 21.2512 5 21.2512H7C7.88439 21.2512 8.40993 21.0306 8.71967 20.7209C9.02941 20.4112 9.25 19.8856 9.25 19.0012V17.0012C9.25 16.1168 9.02941 15.5913 8.71967 15.2816C8.40993 14.9718 7.88439 14.7512 7 14.7512H5C4.11561 14.7512 3.59007 14.9718 3.28033 15.2816Z" fill="#6A8094"/>
<path fill-rule="evenodd" clip-rule="evenodd" d="M6 2.75024C4.20507 2.75024 2.75 4.20532 2.75 6.00024C2.75 7.79517 4.20507 9.25024 6 9.25024C7.79493 9.25024 9.25 7.79517 9.25 6.00024C9.25 4.20532 7.79493 2.75024 6 2.75024ZM1.25 6.00024C1.25 3.37689 3.37665 1.25024 6 1.25024C8.62335 1.25024 10.75 3.37689 10.75 6.00024C10.75 8.6236 8.62335 10.7502 6 10.7502C3.37665 10.7502 1.25 8.6236 1.25 6.00024Z" fill="#6A8094"/>
<path fill-rule="evenodd" clip-rule="evenodd" d="M18 14.7512C16.2051 14.7512 14.75 16.2063 14.75 18.0012C14.75 19.7961 16.2051 21.2512 18 21.2512C19.7949 21.2512 21.25 19.7961 21.25 18.0012C21.25 16.2063 19.7949 14.7512 18 14.7512ZM13.25 18.0012C13.25 15.3779 15.3766 13.2512 18 13.2512C20.6234 13.2512 22.75 15.3779 22.75 18.0012C22.75 20.6246 20.6234 22.7512 18 22.7512C15.3766 22.7512 13.25 20.6246 13.25 18.0012Z" fill="#6A8094"/>
</svg>
