<svg width="20" height="20" viewBox="0 0 20 20" fill="none" xmlns="http://www.w3.org/2000/svg">
	<path d="M15.4417 19.7917C15.3238 19.7911 15.2064 19.7772 15.0917 19.75C13.9841 19.4449 13.0031 18.7938 12.2917 17.8917C11.5414 16.9737 11.1269 15.8272 11.1167 14.6417V12.8167C11.1238 12.5104 11.2177 12.2123 11.3873 11.9572C11.5569 11.702 11.7954 11.5002 12.075 11.375L14.4 10.425C15.0746 10.1583 15.8254 10.1583 16.5 10.425L18.8334 11.375C19.114 11.4998 19.3536 11.7013 19.5247 11.9564C19.6957 12.2115 19.7912 12.5097 19.8 12.8167V14.6417C19.7758 15.8052 19.3778 16.93 18.665 17.8499C17.9522 18.7698 16.9623 19.436 15.8417 19.75C15.7098 19.7754 15.576 19.7893 15.4417 19.7917ZM15.45 11.4583C15.2469 11.4559 15.0454 11.4956 14.8584 11.575L12.55 12.525C12.4993 12.5565 12.4564 12.5991 12.4247 12.6497C12.3929 12.7002 12.3731 12.7573 12.3667 12.8167V14.6417C12.3762 15.5451 12.6937 16.4182 13.2667 17.1167C13.8069 17.8096 14.5544 18.3118 15.4 18.55C15.4389 18.5593 15.4796 18.5564 15.5167 18.5417C16.3663 18.2924 17.1155 17.7811 17.6572 17.0807C18.199 16.3803 18.5056 15.5267 18.5334 14.6417V12.8167C18.526 12.7566 18.5048 12.6991 18.4716 12.6485C18.4383 12.5979 18.3939 12.5556 18.3417 12.525L16.025 11.575C15.8428 11.4989 15.6475 11.4592 15.45 11.4583Z" fill="#666666" />
	<path d="M12.7831 18.125H5.14975C4.42971 18.1108 3.73637 17.8498 3.18574 17.3856C2.6351 16.9214 2.26055 16.2822 2.12475 15.575L1.07475 9.28331C1.00868 8.74693 1.07433 8.20253 1.26599 7.69723C1.45766 7.19193 1.76958 6.74094 2.17475 6.38331L7.65808 1.99997C8.20902 1.57962 8.88318 1.35263 9.57616 1.35413C10.2691 1.35564 10.9423 1.58556 11.4914 2.00831L16.9747 6.38331C17.3814 6.73977 17.6944 7.19059 17.8862 7.69622C18.078 8.20184 18.1427 8.74682 18.0747 9.28331L17.7164 11.4416C17.6993 11.534 17.6621 11.6215 17.6074 11.6978C17.5526 11.7741 17.4817 11.8375 17.3997 11.8833C17.3179 11.9296 17.2266 11.9566 17.1328 11.9624C17.0389 11.9682 16.945 11.9525 16.8581 11.9166L16.0247 11.575C15.6503 11.4249 15.2325 11.4249 14.8581 11.575L12.5497 12.525C12.499 12.5564 12.4561 12.5991 12.4244 12.6496C12.3926 12.7002 12.3728 12.7573 12.3664 12.8166V14.6416C12.3759 15.545 12.6934 16.4181 13.2664 17.1166C13.3409 17.2075 13.3876 17.318 13.4009 17.4348C13.4142 17.5515 13.3936 17.6697 13.3414 17.775C13.2904 17.8797 13.2111 17.968 13.1124 18.0299C13.0137 18.0918 12.8996 18.1247 12.7831 18.125ZM9.56641 2.59997C9.16105 2.59355 8.76514 2.72258 8.44141 2.96664L2.95641 7.34997C2.72547 7.56846 2.54701 7.83641 2.43444 8.13372C2.32186 8.43104 2.27809 8.74999 2.30641 9.06664L3.35642 15.3583C3.44512 15.773 3.66937 16.1464 3.99379 16.4195C4.31821 16.6926 4.72433 16.8499 5.14808 16.8666H11.6481C11.3005 16.1703 11.118 15.4032 11.1147 14.625V12.8C11.1213 12.4928 11.215 12.1937 11.3849 11.9377C11.5549 11.6818 11.7941 11.4794 12.0747 11.3541L14.3997 10.4041C15.0743 10.1374 15.8252 10.1374 16.4997 10.4041L16.6164 10.4541L16.8497 9.07081C16.8781 8.75416 16.8343 8.43521 16.7217 8.13789C16.6091 7.84058 16.4307 7.57262 16.1997 7.35414L10.7164 2.97914C10.3875 2.72532 9.98177 2.59153 9.56641 2.59997Z" fill="#666666" />
</svg>
