<svg width="15" height="20" viewBox="0 0 15 20" fill="none" xmlns="http://www.w3.org/2000/svg">
	<path d="M7.49969 9.99958C10.2571 9.99958 12.4995 7.75718 12.4995 4.99979C12.4995 2.24241 10.2571 0 7.49969 0C4.7423 0 2.4999 2.24241 2.4999 4.99979C2.4999 7.75718 4.7423 9.99958 7.49969 9.99958ZM7.49969 0.833299C9.79709 0.833299 11.6662 2.70239 11.6662 4.99979C11.6662 7.2972 9.79709 9.16628 7.49969 9.16628C5.20228 9.16628 3.33319 7.2972 3.33319 4.99979C3.33319 2.70239 5.20228 0.833299 7.49969 0.833299ZM14.9994 19.1659V19.5825C14.9994 19.8125 14.8127 19.9992 14.5827 19.9992C14.3527 19.9992 14.1661 19.8125 14.1661 19.5825V19.1659C14.1661 16.2177 12.242 13.7103 9.58377 12.8336L8.36548 14.6611L9.57043 19.4825C9.62543 19.7058 9.47294 20 9.16628 20C8.97879 20 8.8088 19.8742 8.76214 19.6842L7.51219 14.6844C7.48386 14.5702 7.50469 14.4502 7.56968 14.3527L8.7288 12.6145C8.33049 12.5403 7.91967 12.5003 7.49969 12.5003C7.07971 12.5003 6.66972 12.5395 6.27141 12.6145L7.42969 14.3527C7.49469 14.4502 7.51552 14.5711 7.48719 14.6844L6.23724 19.6842C6.18974 19.8742 6.02058 20 5.83392 20C5.55227 20 5.37311 19.705 5.42977 19.4825L6.63472 14.6611L5.41644 12.8336C2.75822 13.7103 0.833299 16.2177 0.833299 19.1659V19.5825C0.833299 19.8125 0.64664 19.9992 0.416649 19.9992C0.186659 19.9992 0 19.8125 0 19.5825V19.1659C0 15.031 3.36486 11.6662 7.49969 11.6662C11.6345 11.6662 14.9994 15.031 14.9994 19.1659Z" fill="#8295A5" />
</svg>
