<svg width="24" height="24" viewBox="0 0 24 24" fill="none" xmlns="http://www.w3.org/2000/svg">
<path d="M16.9898 9.70996H7.00977C6.81126 9.70865 6.62125 9.62921 6.48088 9.48884C6.34051 9.34847 6.26108 9.15847 6.25977 8.95996C6.26108 8.76145 6.34051 8.57145 6.48088 8.43108C6.62125 8.29071 6.81126 8.21127 7.00977 8.20996H16.9898C17.1883 8.21127 17.3783 8.29071 17.5186 8.43108C17.659 8.57145 17.7385 8.76145 17.7398 8.95996C17.7385 9.15847 17.659 9.34847 17.5186 9.48884C17.3783 9.62921 17.1883 9.70865 16.9898 9.70996Z" fill="#333333"/>
<path d="M12 9.71003C11.8015 9.70872 11.6115 9.62928 11.4711 9.48891C11.3307 9.34854 11.2513 9.15854 11.25 8.96003V7.28003C11.2513 7.08152 11.3307 6.89152 11.4711 6.75115C11.6115 6.61078 11.8015 6.53134 12 6.53003C12.1985 6.53134 12.3885 6.61078 12.5289 6.75115C12.6693 6.89152 12.7487 7.08152 12.75 7.28003V8.96003C12.7487 9.15854 12.6693 9.34854 12.5289 9.48891C12.3885 9.62928 12.1985 9.70872 12 9.71003Z" fill="#333333"/>
<path d="M7 17.4699C6.80109 17.4699 6.61032 17.3909 6.46967 17.2503C6.32902 17.1096 6.25 16.9189 6.25 16.7199C6.25 16.521 6.32902 16.3303 6.46967 16.1896C6.61032 16.049 6.80109 15.9699 7 15.9699C8.8266 15.9306 10.563 15.1683 11.8284 13.8505C13.0938 12.5326 13.7848 10.7666 13.75 8.93994C13.75 8.74103 13.829 8.55026 13.9697 8.40961C14.1103 8.26896 14.3011 8.18994 14.5 8.18994C14.6989 8.18994 14.8897 8.26896 15.0303 8.40961C15.171 8.55026 15.25 8.74103 15.25 8.93994C15.2848 11.1644 14.4357 13.3119 12.889 14.911C11.3423 16.5102 9.22441 17.4305 7 17.4699Z" fill="#333333"/>
<path d="M17 17.47C15.985 17.4486 14.9897 17.1863 14.096 16.7047C13.2024 16.2231 12.4359 15.536 11.86 14.7C11.7406 14.5409 11.6894 14.3409 11.7175 14.1439C11.7456 13.947 11.8508 13.7694 12.01 13.65C12.1691 13.5307 12.3691 13.4794 12.566 13.5075C12.7629 13.5357 12.9406 13.6409 13.06 13.8C13.5014 14.4468 14.0891 14.9804 14.7754 15.3574C15.4618 15.7344 16.2273 15.9443 17.01 15.97C17.2085 15.9713 17.3985 16.0508 17.5388 16.1911C17.6792 16.3315 17.7587 16.5215 17.76 16.72C17.7563 16.9195 17.6748 17.1097 17.5327 17.2498C17.3907 17.39 17.1995 17.469 17 17.47Z" fill="#333333"/>
<path d="M12 22.75C9.87386 22.75 7.79545 22.1195 6.02762 20.9383C4.2598 19.7571 2.88194 18.0782 2.0683 16.1139C1.25466 14.1495 1.04177 11.9881 1.45656 9.90278C1.87135 7.81749 2.89519 5.90202 4.39861 4.39861C5.90202 2.89519 7.81749 1.87135 9.90278 1.45656C11.9881 1.04177 14.1495 1.25466 16.1139 2.0683C18.0782 2.88194 19.7571 4.2598 20.9383 6.02762C22.1195 7.79545 22.75 9.87386 22.75 12C22.7476 14.8504 21.6143 17.5833 19.5988 19.5988C17.5833 21.6143 14.8504 22.7476 12 22.75ZM12 2.75C10.1705 2.75 8.38213 3.29251 6.86098 4.30891C5.33983 5.32531 4.15423 6.76997 3.45412 8.46018C2.75401 10.1504 2.57083 12.0103 2.92774 13.8046C3.28465 15.5989 4.16563 17.2471 5.45927 18.5407C6.7529 19.8344 8.40109 20.7154 10.1954 21.0723C11.9897 21.4292 13.8496 21.246 15.5398 20.5459C17.23 19.8458 18.6747 18.6602 19.6911 17.139C20.7075 15.6179 21.25 13.8295 21.25 12C21.2471 9.54765 20.2716 7.19656 18.5375 5.46248C16.8034 3.7284 14.4524 2.75292 12 2.75Z" fill="#333333"/>
</svg>
