<svg width="24" height="24" viewBox="0 0 24 24" fill="none" xmlns="http://www.w3.org/2000/svg">
	<path d="M14.7908 19.42C14.663 19.4186 14.5376 19.3849 14.4264 19.3219C14.3153 19.2589 14.2218 19.1688 14.1549 19.0599C14.088 18.9511 14.0498 18.827 14.0438 18.6994C14.0378 18.5717 14.0643 18.4446 14.1208 18.33L16.2608 14.06C16.3245 13.9371 16.4206 13.834 16.5387 13.7617C16.6568 13.6895 16.7923 13.6508 16.9308 13.65C17.0705 13.6508 17.2072 13.6905 17.3255 13.7647C17.4439 13.8389 17.5392 13.9446 17.6008 14.07L19.7448 18.34C19.8256 18.518 19.8342 18.7204 19.7687 18.9046C19.7031 19.0888 19.5686 19.2404 19.3935 19.3273C19.2184 19.4142 19.0163 19.4297 18.83 19.3705C18.6437 19.3113 18.4876 19.182 18.3948 19.01L16.9308 16.08L15.4708 19.01C15.4046 19.133 15.3066 19.236 15.1869 19.3081C15.0673 19.3803 14.9305 19.4189 14.7908 19.42Z" fill="#333333" />
	<path d="M18.6802 18.66H15.1602C14.9616 18.6587 14.7716 18.5793 14.6313 18.4389C14.4909 18.2985 14.4115 18.1085 14.4102 17.91C14.4115 17.7115 14.4909 17.5215 14.6313 17.3811C14.7716 17.2408 14.9616 17.1613 15.1602 17.16H18.6802C18.8791 17.16 19.0698 17.239 19.2105 17.3797C19.3511 17.5203 19.4302 17.7111 19.4302 17.91C19.4302 18.1089 19.3511 18.2997 19.2105 18.4403C19.0698 18.581 18.8791 18.66 18.6802 18.66Z" fill="#333333" />
	<path d="M16.9198 22.75C15.7668 22.75 14.6396 22.4081 13.6809 21.7675C12.7221 21.1269 11.9749 20.2163 11.5336 19.151C11.0924 18.0858 10.9769 16.9135 11.2019 15.7826C11.4268 14.6517 11.9821 13.6129 12.7974 12.7976C13.6128 11.9822 14.6516 11.427 15.7825 11.202C16.9134 10.9771 18.0856 11.0925 19.1509 11.5338C20.2162 11.975 21.1267 12.7223 21.7673 13.681C22.4079 14.6398 22.7498 15.7669 22.7498 16.92C22.7483 18.4657 22.1335 19.9477 21.0405 21.0407C19.9475 22.1337 18.4656 22.7484 16.9198 22.75ZM16.9198 12.6C16.0635 12.6 15.2263 12.8539 14.5142 13.3297C13.8022 13.8055 13.2472 14.4818 12.9194 15.273C12.5917 16.0642 12.506 16.9348 12.673 17.7747C12.8401 18.6147 13.2525 19.3862 13.8581 19.9918C14.4636 20.5973 15.2352 21.0097 16.0751 21.1768C16.915 21.3439 17.7857 21.2581 18.5769 20.9304C19.3681 20.6027 20.0443 20.0477 20.5201 19.3356C20.9959 18.6236 21.2498 17.7864 21.2498 16.93C21.2493 15.7818 20.793 14.6807 19.981 13.8688C19.1691 13.0569 18.0681 12.6005 16.9198 12.6Z" fill="#333333" />
	<path d="M4.85932 12.7C3.90319 12.7539 2.96466 12.4267 2.24932 11.79C1.89739 11.406 1.62725 10.9545 1.45533 10.4628C1.28342 9.97111 1.21333 9.4496 1.24932 8.92999V5.00999C1.19008 4.50058 1.24684 3.98438 1.41536 3.50002C1.58387 3.01566 1.85977 2.57569 2.2224 2.21306C2.58503 1.85043 3.025 1.57453 3.50936 1.40602C3.99372 1.2375 4.50992 1.18074 5.01932 1.23999H8.93932C9.45906 1.20251 9.98097 1.27191 10.4729 1.4439C10.9647 1.61588 11.4162 1.88682 11.7993 2.23999C12.132 2.61918 12.3842 3.062 12.5407 3.5416C12.6971 4.02119 12.7545 4.52755 12.7093 5.02999V8.92999C12.7575 9.44032 12.6998 9.9551 12.5398 10.4421C12.3798 10.9291 12.1209 11.3777 11.7793 11.76C11.3928 12.1011 10.9405 12.3596 10.4504 12.5195C9.96032 12.6795 9.44268 12.7375 8.92932 12.69H5.02932C4.97301 12.6977 4.91617 12.7011 4.85932 12.7ZM5.01932 2.74999C3.40932 2.74999 2.74932 3.40999 2.74932 5.01999V8.93999C2.71797 9.25761 2.74953 9.5783 2.84219 9.88373C2.93484 10.1891 3.08678 10.4733 3.28932 10.72C3.77073 11.0975 4.38157 11.27 4.98932 11.2H8.92932C9.24282 11.2401 9.56118 11.2164 9.86532 11.1305C10.1695 11.0446 10.4531 10.8982 10.6993 10.7C10.8936 10.4557 11.037 10.175 11.1212 9.8745C11.2053 9.57396 11.2285 9.25962 11.1893 8.94999V5.00999C11.227 4.70579 11.204 4.39715 11.1216 4.10191C11.0392 3.80667 10.8991 3.53071 10.7093 3.28999C10.4627 3.08745 10.1785 2.9355 9.87306 2.84285C9.56764 2.75019 9.24695 2.71864 8.92932 2.74999H5.01932Z" fill="#333333" />
	<path d="M8.99945 6.60001H4.93945C4.74095 6.5987 4.55094 6.51926 4.41057 6.37889C4.2702 6.23852 4.19076 6.04851 4.18945 5.85001C4.19076 5.6515 4.2702 5.46149 4.41057 5.32112C4.55094 5.18075 4.74095 5.10132 4.93945 5.10001H8.99945C9.19837 5.10001 9.38913 5.17902 9.52978 5.31968C9.67044 5.46033 9.74945 5.65109 9.74945 5.85001C9.74945 6.04892 9.67044 6.23968 9.52978 6.38034C9.38913 6.52099 9.19837 6.60001 8.99945 6.60001Z" fill="#333333" />
	<path d="M6.98047 6.60001C6.78196 6.5987 6.59196 6.51926 6.45159 6.3789C6.31122 6.23853 6.23178 6.04852 6.23047 5.85001V5.17001C6.23178 4.97151 6.31122 4.7815 6.45159 4.64113C6.59196 4.50076 6.78196 4.42132 6.98047 4.42001C7.17898 4.42132 7.36898 4.50076 7.50935 4.64113C7.64972 4.7815 7.72916 4.97151 7.73047 5.17001V5.85001C7.72916 6.04852 7.64972 6.23853 7.50935 6.3789C7.36898 6.51926 7.17898 6.5987 6.98047 6.60001Z" fill="#333333" />
	<path d="M4.93945 9.76C4.74054 9.76 4.54978 9.68098 4.40912 9.54033C4.26847 9.39967 4.18945 9.20891 4.18945 9.01C4.18945 8.81108 4.26847 8.62032 4.40912 8.47967C4.54978 8.33901 4.74054 8.26 4.93945 8.26C5.2494 8.25222 5.55478 8.18344 5.83814 8.05759C6.1215 7.93175 6.37729 7.7513 6.59088 7.52656C6.80447 7.30182 6.97169 7.0372 7.08298 6.74781C7.19426 6.45842 7.24743 6.14994 7.23945 5.84C7.23945 5.64108 7.31847 5.45032 7.45912 5.30967C7.59978 5.16901 7.79054 5.09 7.98945 5.09C8.18837 5.09 8.37913 5.16901 8.51978 5.30967C8.66044 5.45032 8.73945 5.64108 8.73945 5.84C8.75443 6.86346 8.3627 7.85105 7.65026 8.58598C6.93782 9.32092 5.96289 9.74315 4.93945 9.76Z" fill="#333333" />
	<path d="M9.01016 9.75977C8.52889 9.7482 8.05692 9.62469 7.63166 9.39905C7.20641 9.1734 6.83955 8.85181 6.56016 8.45977C6.44081 8.30064 6.38957 8.10062 6.4177 7.9037C6.44583 7.70679 6.55103 7.52912 6.71016 7.40977C6.86929 7.29042 7.06931 7.23918 7.26623 7.26731C7.46314 7.29544 7.64081 7.40064 7.76016 7.55977C7.89758 7.76848 8.08251 7.94164 8.29979 8.06506C8.51708 8.18848 8.76052 8.25863 9.01016 8.26977C9.20867 8.27108 9.39867 8.35052 9.53904 8.49089C9.67941 8.63126 9.75885 8.82126 9.76016 9.01977C9.75831 9.21719 9.67838 9.40585 9.53784 9.54452C9.39731 9.68318 9.20759 9.76057 9.01016 9.75977Z" fill="#333333" />
	<path d="M9 22.75C6.94563 22.7466 4.97638 21.9289 3.52372 20.4763C2.07106 19.0236 1.25344 17.0544 1.25 15C1.25131 14.8015 1.33075 14.6115 1.47112 14.4711C1.61149 14.3307 1.80149 14.2513 2 14.25C2.19851 14.2513 2.38851 14.3307 2.52888 14.4711C2.66925 14.6115 2.74869 14.8015 2.75 15C2.75119 16.4108 3.22884 17.7799 4.10552 18.8853C4.9822 19.9907 6.20652 20.7675 7.58 21.09L7.31 20.64C7.25944 20.5553 7.22606 20.4615 7.21176 20.3639C7.19747 20.2663 7.20254 20.1668 7.22668 20.0712C7.25082 19.9755 7.29357 19.8856 7.35248 19.8064C7.41138 19.7273 7.4853 19.6606 7.57 19.61C7.6547 19.5594 7.74853 19.5261 7.84614 19.5118C7.94374 19.4975 8.0432 19.5025 8.13885 19.5267C8.23449 19.5508 8.32444 19.5936 8.40357 19.6525C8.48269 19.7114 8.54944 19.7853 8.6 19.87L9.65 21.62C9.71784 21.733 9.75451 21.8619 9.75627 21.9936C9.75803 22.1254 9.72481 22.2553 9.66 22.37C9.59157 22.4844 9.49499 22.5794 9.37946 22.6459C9.26393 22.7124 9.1333 22.7483 9 22.75Z" fill="#333333" />
	<path d="M22.0004 9.75001C21.8019 9.7487 21.6119 9.66926 21.4715 9.52889C21.3311 9.38853 21.2517 9.19852 21.2504 9.00001C21.2492 7.58919 20.7715 6.22011 19.8949 5.11473C19.0182 4.00935 17.7939 3.23247 16.4204 2.91001L16.6904 3.36001C16.7409 3.44471 16.7743 3.53855 16.7886 3.63615C16.8029 3.73375 16.7978 3.83322 16.7737 3.92886C16.7496 4.0245 16.7068 4.11446 16.6479 4.19358C16.589 4.27271 16.5151 4.33945 16.4304 4.39001C16.3457 4.44057 16.2518 4.47395 16.1542 4.48825C16.0566 4.50254 15.9572 4.49748 15.8615 4.47333C15.7659 4.44919 15.6759 4.40644 15.5968 4.34754C15.5177 4.28863 15.4509 4.21471 15.4004 4.13001L14.3504 2.38001C14.2831 2.2667 14.2472 2.13758 14.2461 2.00582C14.2451 1.87407 14.279 1.74439 14.3444 1.63001C14.4078 1.51434 14.5013 1.41796 14.6151 1.35106C14.7288 1.28417 14.8585 1.24926 14.9904 1.25001C17.0454 1.25239 19.0157 2.06954 20.4692 3.52232C21.9228 4.9751 22.7409 6.94495 22.7444 9.00001C22.7456 9.09833 22.7272 9.1959 22.6903 9.28704C22.6534 9.37818 22.5987 9.46107 22.5295 9.53088C22.4603 9.60068 22.3778 9.65601 22.287 9.69363C22.1961 9.73125 22.0987 9.75042 22.0004 9.75001Z" fill="#333333" />
</svg>
