<svg width="21" height="21" viewBox="0 0 21 21" fill="none" xmlns="http://www.w3.org/2000/svg">
	<path d="M11.3711 13.1152C11.3711 13.3842 11.2913 13.6471 11.1419 13.8707C10.9925 14.0943 10.7801 14.2686 10.5316 14.3716C10.2831 14.4745 10.0097 14.5014 9.74592 14.4489C9.48214 14.3965 9.23984 14.267 9.04966 14.0768C8.85948 13.8866 8.72997 13.6443 8.6775 13.3805C8.62503 13.1167 8.65196 12.8433 8.75488 12.5948C8.8578 12.3463 9.0321 12.134 9.25572 11.9845C9.47935 11.8351 9.74226 11.7554 10.0112 11.7554C10.3719 11.7554 10.7178 11.8986 10.9728 12.1537C11.2278 12.4087 11.3711 12.7546 11.3711 13.1152Z" fill="white" />
	<path d="M15.2507 7.95094V6.90811C15.2507 4.6556 14.7085 1.66895 10.0116 1.66895C5.31467 1.66895 4.7724 4.6556 4.7724 6.90811V7.95094C2.43647 8.24293 1.66895 9.42759 1.66895 12.3392V13.8909C1.66895 17.3114 2.71177 18.3542 6.13225 18.3542H13.8909C17.3114 18.3542 18.3542 17.3114 18.3542 13.8909V12.3392C18.3542 9.42759 17.5867 8.24293 15.2507 7.95094ZM10.0116 15.6345C9.51326 15.6345 9.02615 15.4867 8.61182 15.2099C8.1975 14.933 7.87457 14.5396 7.68388 14.0792C7.49319 13.6188 7.44329 13.1122 7.54051 12.6235C7.63772 12.1348 7.87768 11.6858 8.23003 11.3335C8.58239 10.9811 9.03131 10.7412 9.52004 10.644C10.0088 10.5467 10.5154 10.5966 10.9757 10.7873C11.4361 10.978 11.8296 11.301 12.1064 11.7153C12.3833 12.1296 12.531 12.6167 12.531 13.115C12.5302 13.783 12.2644 14.4233 11.7921 14.8956C11.3198 15.3679 10.6795 15.6336 10.0116 15.6345ZM6.13225 7.87586H5.94037V6.90811C5.94037 4.46372 6.63281 2.83691 10.0116 2.83691C13.3903 2.83691 14.0828 4.46372 14.0828 6.90811V7.8842H6.13225V7.87586Z" fill="white" />
</svg>
