<svg width="24" height="24" viewBox="0 0 24 24" fill="none" xmlns="http://www.w3.org/2000/svg">
	<path d="M11.9996 14.1695C11.2352 14.1685 10.4883 13.9408 9.85321 13.5153C9.21817 13.0898 8.72356 12.4855 8.43194 11.7789C8.14033 11.0723 8.06479 10.2951 8.21489 9.54553C8.365 8.79598 8.73399 8.10778 9.27522 7.56795C9.81645 7.02812 10.5056 6.66091 11.2555 6.51275C12.0055 6.36459 12.7825 6.44213 13.4883 6.73558C14.1942 7.02902 14.7972 7.52519 15.2211 8.16133C15.6449 8.79748 15.8706 9.54503 15.8696 10.3095C15.8662 11.3339 15.4571 12.3152 14.7317 13.0386C14.0064 13.7621 13.0241 14.1687 11.9996 14.1695ZM11.9996 7.93945C11.5309 7.93945 11.0727 8.07845 10.6829 8.33887C10.2932 8.59929 9.98943 8.96943 9.81005 9.40249C9.63067 9.83555 9.58374 10.3121 9.67519 10.7718C9.76663 11.2316 9.99235 11.6538 10.3238 11.9853C10.6553 12.3167 11.0775 12.5425 11.5373 12.6339C11.997 12.7254 12.4735 12.6784 12.9066 12.499C13.3397 12.3197 13.7098 12.0159 13.9702 11.6262C14.2306 11.2364 14.3696 10.7782 14.3696 10.3095C14.3683 9.68129 14.1182 9.07924 13.674 8.63507C13.2299 8.19089 12.6278 7.94077 11.9996 7.93945Z" fill="#8295A5" />
	<path d="M11.9995 22.7599C10.459 22.7568 8.9792 22.1585 7.86952 21.0899C4.92252 18.2499 1.65952 13.7199 2.88952 8.32985C3.35851 6.28013 4.52167 4.45555 6.18193 3.16525C7.84219 1.87495 9.89745 1.19827 11.9995 1.24985H12.0095C14.1135 1.19787 16.1707 1.87557 17.8318 3.16793C19.4929 4.46029 20.6556 6.28767 21.1225 8.33985C22.3425 13.7299 19.0825 18.2499 16.1325 21.0899C15.0221 22.1592 13.5411 22.7576 11.9995 22.7599ZM11.9995 2.74985C10.2362 2.68733 8.50671 3.24417 7.11114 4.32373C5.71557 5.4033 4.74203 6.93742 4.35952 8.65985C3.27952 13.3699 6.23952 17.4299 8.91952 19.9999C9.74566 20.8029 10.8524 21.2522 12.0045 21.2522C13.1567 21.2522 14.2634 20.8029 15.0895 19.9999C17.7595 17.4299 20.7195 13.3699 19.6595 8.65985C19.2714 6.93654 18.2936 5.40289 16.895 4.32383C15.4965 3.24476 13.7649 2.68805 11.9995 2.74985Z" fill="#8295A5" />
</svg>
