<svg width="38" height="42" viewBox="0 0 38 42" fill="none" xmlns="http://www.w3.org/2000/svg">
	<ellipse opacity="0.51" cx="19.0001" cy="31.1567" rx="18.5714" ry="10.8434" fill="#01805F" />
	<path d="M19.0016 17.4941C18.1023 17.4929 17.2235 17.2251 16.4764 16.7245C15.7293 16.2239 15.1474 15.513 14.8043 14.6817C14.4612 13.8504 14.3724 12.936 14.549 12.0542C14.7256 11.1724 15.1597 10.3627 15.7964 9.72761C16.4332 9.09252 17.2439 8.6605 18.1262 8.48619C19.0085 8.31188 19.9226 8.40311 20.753 8.74834C21.5834 9.09357 22.2928 9.6773 22.7915 10.4257C23.2902 11.1741 23.5557 12.0536 23.5546 12.9529C23.5505 14.1581 23.0692 15.3126 22.2159 16.1637C21.3626 17.0148 20.2068 17.4932 19.0016 17.4941ZM19.0016 10.1647C18.4502 10.1647 17.9111 10.3282 17.4526 10.6346C16.994 10.9409 16.6367 11.3764 16.4256 11.8859C16.2146 12.3954 16.1594 12.956 16.267 13.4969C16.3745 14.0377 16.6401 14.5345 17.03 14.9245C17.42 15.3144 17.9168 15.58 18.4577 15.6876C18.9985 15.7951 19.5592 15.7399 20.0686 15.5289C20.5781 15.3179 21.0136 14.9605 21.32 14.502C21.6263 14.0434 21.7899 13.5044 21.7899 12.9529C21.7883 12.2139 21.494 11.5056 20.9715 10.983C20.4489 10.4605 19.7406 10.1662 19.0016 10.1647Z" fill="#01805F" />
	<path d="M18.9999 27.5999C17.1875 27.5963 15.4466 26.8923 14.1411 25.6352C10.674 22.294 6.83519 16.9646 8.28225 10.6234C8.834 8.21195 10.2024 6.06539 12.1557 4.54739C14.1089 3.02939 16.5269 2.2333 18.9999 2.29398H19.0117C21.4869 2.23282 23.9071 3.03013 25.8614 4.55055C27.8156 6.07097 29.1835 8.22083 29.7328 10.6352C31.1681 16.9763 27.3328 22.294 23.8622 25.6352C22.5559 26.8932 20.8135 27.5972 18.9999 27.5999ZM18.9999 4.05869C16.9254 3.98513 14.8907 4.64024 13.2489 5.91031C11.607 7.18039 10.4617 8.98524 10.0117 11.0116C8.74107 16.5528 12.2234 21.3293 15.3764 24.3528C16.3483 25.2976 17.6503 25.8261 19.0058 25.8261C20.3612 25.8261 21.6633 25.2976 22.6352 24.3528C25.7764 21.3293 29.2587 16.5528 28.0117 11.0116C27.5551 8.98421 26.4047 7.17991 24.7593 5.91042C23.1139 4.64094 21.0768 3.98598 18.9999 4.05869Z" fill="#01805F" />
</svg>
