<svg width="20" height="20" viewBox="0 0 20 20" fill="none" xmlns="http://www.w3.org/2000/svg">
	<path d="M9.99987 11.8084C9.36285 11.8075 8.74038 11.6178 8.21117 11.2632C7.68197 10.9086 7.2698 10.4051 7.02678 9.81624C6.78377 9.2274 6.72082 8.57971 6.84591 7.95509C6.97099 7.33048 7.27849 6.75697 7.72951 6.30712C8.18054 5.85726 8.75483 5.55125 9.37977 5.42778C10.0047 5.30431 10.6522 5.36893 11.2404 5.61347C11.8287 5.85801 12.3312 6.27148 12.6844 6.8016C13.0376 7.33172 13.2257 7.95468 13.2249 8.5917C13.222 9.44537 12.881 10.2631 12.2766 10.866C11.6722 11.4689 10.8535 11.8077 9.99987 11.8084ZM9.99987 6.6167C9.60925 6.6167 9.2274 6.73253 8.90262 6.94955C8.57783 7.16656 8.32469 7.47501 8.17521 7.8359C8.02572 8.19678 7.98661 8.59389 8.06282 8.977C8.13902 9.36011 8.32712 9.71203 8.60333 9.98823C8.87954 10.2644 9.23145 10.4525 9.61457 10.5287C9.99768 10.605 10.3948 10.5658 10.7557 10.4164C11.1166 10.2669 11.425 10.0137 11.642 9.68895C11.859 9.36416 11.9749 8.98232 11.9749 8.5917C11.9738 8.06823 11.7653 7.56652 11.3952 7.19638C11.025 6.82623 10.5233 6.6178 9.99987 6.6167Z" fill="#666666" />
	<path d="M10.0002 18.9666C8.71645 18.9641 7.48332 18.4655 6.55858 17.575C4.10275 15.2083 1.38358 11.4333 2.40858 6.94163C2.79941 5.23352 3.76871 3.71304 5.15226 2.63779C6.53581 1.56254 8.24853 0.998638 10.0002 1.04163H10.0086C11.7619 0.998303 13.4762 1.56306 14.8605 2.64003C16.2447 3.71699 17.2136 5.23981 17.6027 6.94996C18.6194 11.4416 15.9028 15.2083 13.4444 17.575C12.5191 18.4661 11.2849 18.9647 10.0002 18.9666ZM10.0002 2.29163C8.53085 2.23952 7.08958 2.70356 5.9266 3.60319C4.76362 4.50283 3.95235 5.78127 3.63358 7.21663C2.73358 11.1416 5.20025 14.525 7.43358 16.6666C8.12203 17.3358 9.04431 17.7102 10.0044 17.7102C10.9645 17.7102 11.8868 17.3358 12.5752 16.6666C14.8003 14.525 17.2669 11.1416 16.3836 7.21663C16.0602 5.78053 15.2453 4.50249 14.0798 3.60327C12.9144 2.70405 11.4714 2.24012 10.0002 2.29163Z" fill="#666666" />
</svg>
