<svg width="24" height="24" viewBox="0 0 24 24" fill="none" xmlns="http://www.w3.org/2000/svg">
	<path d="M18 10.75C17.8015 10.7487 17.6115 10.6693 17.4711 10.5289C17.3307 10.3885 17.2513 10.1985 17.25 10V8C17.25 4.85 16.36 2.75 12 2.75C7.64 2.75 6.75 4.85 6.75 8V10C6.74869 10.1985 6.66925 10.3885 6.52888 10.5289C6.38851 10.6693 6.19851 10.7487 6 10.75C5.80149 10.7487 5.61149 10.6693 5.47112 10.5289C5.33075 10.3885 5.25131 10.1985 5.25 10V8C5.25 5.1 5.95 1.25 12 1.25C18.05 1.25 18.75 5.1 18.75 8V10C18.7487 10.1985 18.6693 10.3885 18.5289 10.5289C18.3885 10.6693 18.1985 10.7487 18 10.75Z" fill="#A5A5A5" />
	<path d="M12 19.25C11.3572 19.25 10.7289 19.0594 10.1944 18.7023C9.65994 18.3452 9.24338 17.8376 8.99739 17.2437C8.75141 16.6499 8.68705 15.9964 8.81245 15.366C8.93785 14.7355 9.24738 14.1564 9.7019 13.7019C10.1564 13.2474 10.7355 12.9379 11.366 12.8124C11.9964 12.687 12.6499 12.7514 13.2437 12.9974C13.8376 13.2434 14.3452 13.6599 14.7023 14.1944C15.0594 14.7289 15.25 15.3572 15.25 16C15.2484 16.8615 14.9055 17.6872 14.2963 18.2963C13.6872 18.9055 12.8615 19.2484 12 19.25ZM12 14.25C11.6539 14.25 11.3155 14.3526 11.0278 14.5449C10.74 14.7372 10.5157 15.0105 10.3832 15.3303C10.2508 15.6501 10.2161 16.0019 10.2836 16.3414C10.3512 16.6809 10.5178 16.9927 10.7626 17.2374C11.0073 17.4822 11.3191 17.6489 11.6586 17.7164C11.9981 17.7839 12.3499 17.7492 12.6697 17.6168C12.9895 17.4843 13.2628 17.26 13.4551 16.9722C13.6474 16.6845 13.75 16.3461 13.75 16C13.7479 15.5365 13.5628 15.0926 13.2351 14.7649C12.9074 14.4372 12.4635 14.2521 12 14.25Z" fill="#A5A5A5" />
	<path d="M17 22.75H7C2.59 22.75 1.25 21.41 1.25 17V15C1.25 10.59 2.59 9.25 7 9.25H17C21.41 9.25 22.75 10.59 22.75 15V17C22.75 21.41 21.41 22.75 17 22.75ZM7 10.75C3.42 10.75 2.75 11.43 2.75 15V17C2.75 20.57 3.42 21.25 7 21.25H17C20.58 21.25 21.25 20.57 21.25 17V15C21.25 11.43 20.58 10.75 17 10.75H7Z" fill="#A5A5A5" />
</svg>
