<svg width="21" height="20" viewBox="0 0 21 20" fill="none" xmlns="http://www.w3.org/2000/svg">
	<path d="M15.2831 12.8085C15.1247 12.8085 14.9664 12.7502 14.8414 12.6252C14.5997 12.3835 14.5997 11.9835 14.8414 11.7419L16.5331 10.0502L14.8414 8.35853C14.5997 8.11686 14.5997 7.71686 14.8414 7.4752C15.0831 7.23353 15.4831 7.23353 15.7247 7.4752L17.8581 9.60853C18.0997 9.85019 18.0997 10.2502 17.8581 10.4919L15.7247 12.6252C15.5997 12.7502 15.4414 12.8085 15.2831 12.8085Z" fill="#DE1F1F" />
	<path d="M17.3578 10.6748H8.88281C8.54115 10.6748 8.25781 10.3915 8.25781 10.0498C8.25781 9.70814 8.54115 9.4248 8.88281 9.4248H17.3578C17.6995 9.4248 17.9828 9.70814 17.9828 10.0498C17.9828 10.3915 17.6995 10.6748 17.3578 10.6748Z" fill="#DE1F1F" />
	<path d="M10.5495 17.2918C6.25781 17.2918 3.25781 14.2918 3.25781 10.0002C3.25781 5.7085 6.25781 2.7085 10.5495 2.7085C10.8911 2.7085 11.1745 2.99183 11.1745 3.3335C11.1745 3.67516 10.8911 3.9585 10.5495 3.9585C6.99115 3.9585 4.50781 6.44183 4.50781 10.0002C4.50781 13.5585 6.99115 16.0418 10.5495 16.0418C10.8911 16.0418 11.1745 16.3252 11.1745 16.6668C11.1745 17.0085 10.8911 17.2918 10.5495 17.2918Z" fill="#DE1F1F" />
</svg>
