<svg width="934" height="700" viewBox="0 0 934 700" fill="none" xmlns="http://www.w3.org/2000/svg">
    <path d="M219.998 5.60035C216.398 8.80035 195.998 26.667 174.665 45.3337C153.465 64.0004 126.398 87.7337 114.665 98.0004C102.931 108.267 91.1979 118.534 88.6646 120.8C86.1312 123.067 77.9979 130.267 70.6646 136.667C41.8646 162 31.4646 173.6 20.1312 192.134C6.66458 214.4 0.53125 237.467 0.53125 266C0.53125 304.267 10.9312 333.467 35.1979 363.2C44.1312 374.267 62.1312 389.6 75.3312 397.467C88.5312 405.334 109.598 412.667 123.998 414.667C130.665 415.467 137.331 416.534 139.065 416.8L141.998 417.334V454V490.667H130.398C114.531 490.8 113.998 491.2 113.998 506C113.998 518.667 113.598 517.6 125.198 531.734L130.398 538L115.198 538.267C91.8646 538.8 93.9979 536.667 93.9979 559.867C93.9979 585.2 92.9312 584 115.731 584C125.065 584 132.665 584.534 132.665 585.2C132.665 585.867 128.531 592.134 123.331 599.067L113.998 611.734V624.534C113.998 639.734 114.665 640.4 129.198 640C134.398 639.734 139.465 639.734 140.398 639.867C141.598 640 141.998 645.067 141.998 660.667V681.334L147.331 686.134C150.265 688.8 155.465 692.8 158.931 695.2C164.798 699.067 166.265 699.334 179.065 699.734C189.998 700.134 193.465 699.867 195.998 698.134L199.331 696V531.467C199.331 373.867 199.198 366.934 196.931 364.934C194.798 362.934 190.798 362.667 168.398 362.667C136.398 362.667 126.398 360.934 108.665 352.267C97.8646 347.067 94.1312 344.267 83.9979 334.134C70.3979 320.534 63.9979 309.867 59.4646 293.334C52.9312 269.867 54.9312 246.667 65.1979 226C72.7979 210.8 80.9312 200.934 99.5979 184.534C117.998 168.267 196.131 99.867 215.598 82.8004L229.998 70.4004L246.265 84.1337C255.331 91.7337 269.865 104.267 278.798 112C287.598 119.734 296.398 127.2 298.131 128.667C302.131 132.134 351.998 175.734 373.198 194.667C381.998 202.4 393.598 212.8 399.065 218C411.865 230 414.398 231.734 417.198 229.467C419.065 227.867 419.331 223.334 419.331 197.067C419.331 161.867 419.465 162.534 407.731 152.534C403.465 148.934 397.865 144.134 395.331 141.867C366.131 115.734 333.598 86.9337 303.331 60.667C283.198 43.2004 263.331 25.867 259.331 22.1337C231.465 -3.46631 230.931 -3.59965 219.998 5.60035Z" fill="white"/>
    <path d="M186.933 183.6C186.4 184 186 193.067 186 203.467V222.667L189.2 223.467C191.6 224 218.667 223.467 223.067 222.667C223.2 222.667 223.333 213.6 223.333 202.667V182.667H205.6C195.733 182.667 187.333 183.067 186.933 183.6Z" fill="white"/>
    <path d="M238.933 183.601C238.4 184.001 238 193.068 238 203.601C238 219.735 238.267 222.935 240.133 223.601C241.2 224.001 249.467 223.868 258.4 223.201L274.667 222.001L275.067 205.335C275.6 180.668 277.2 182.668 256.8 182.668C247.467 182.668 239.333 183.068 238.933 183.601Z" fill="white"/>
    <path d="M892.932 198.535C883.732 201.735 876.665 207.335 873.065 214.668C870.532 219.468 869.998 222.801 869.998 232.268V244.001H864.798C856.665 244.001 855.198 246.401 855.598 258.535L855.998 268.668H894.665H933.332L933.732 257.468C933.998 249.335 933.598 245.868 932.398 245.201C931.465 244.535 923.998 244.001 915.865 244.001C898.798 244.001 896.665 242.935 896.665 233.735C896.665 225.068 899.598 223.468 916.532 222.935C924.265 222.668 931.465 221.868 932.398 221.068C933.465 220.135 933.998 215.868 933.998 208.668C933.998 199.868 933.598 197.468 931.865 196.801C930.665 196.401 923.065 196.001 914.932 196.001C903.998 196.135 898.132 196.801 892.932 198.535Z" fill="white"/>
    <path d="M186.53 239.067C186.263 240 186.13 249.2 186.263 259.333L186.663 278H204.663H222.663L223.063 257.6L223.463 237.333H205.33C191.73 237.333 187.063 237.733 186.53 239.067Z" fill="white"/>
    <path d="M238.661 239.067C238.261 240.001 238.128 249.201 238.261 259.334L238.661 278.001L255.594 278.134C267.994 278.401 272.928 277.867 273.994 276.667C274.928 275.601 275.328 268.134 275.061 256.534L274.661 238.001L256.928 237.601C243.194 237.334 239.061 237.601 238.661 239.067Z" fill="white"/>
    <path d="M364.664 252C362.931 253.066 362.664 269.6 362.664 387.6C362.664 495.066 363.064 523.6 364.397 530C369.997 554.533 386.397 570.8 411.997 576.933C420.531 578.933 439.597 579.2 617.997 579.6C726.131 579.866 816.664 579.733 819.064 579.333L823.331 578.533V534.4C823.331 484.666 821.864 470.133 815.064 450.933C809.864 436.133 805.197 426.933 796.931 415.333C772.397 380.933 733.731 358.8 684.264 351.066C663.331 347.733 600.531 347.866 577.331 351.2C558.131 353.866 544.797 356.933 542.397 358.8C541.064 360 540.664 366.8 540.664 388.8C540.664 421.866 538.797 419.066 557.597 414.533C578.797 409.466 592.931 407.866 621.597 407.066C666.931 405.866 689.731 409.6 715.064 422.133C728.664 429.066 740.797 439.733 749.997 453.333C759.464 467.2 766.397 489.066 768.131 509.866L769.064 521.333H602.531C443.331 521.333 435.731 521.2 431.331 518.933C424.664 515.333 421.997 508.8 420.531 493.733C419.997 486.533 419.464 429.333 419.331 366.533C419.331 263.6 419.064 252.266 417.197 251.466C413.731 250.133 366.797 250.533 364.664 252Z" fill="white"/>
    <path d="M873.464 296.8C873.064 298 872.664 361.467 872.664 438C872.664 559.2 872.931 577.2 874.664 578.667C876.931 580.534 925.331 580.134 928.397 578.267C930.664 576.667 930.797 298.667 928.397 296.267C927.197 295.067 919.197 294.667 900.531 294.667C877.864 294.667 874.131 294.934 873.464 296.8Z" fill="white"/>
    <path d="M329.995 547.067C318.395 575.6 312.395 585.2 297.728 599.6C278.395 618.667 263.062 627.334 235.328 634.667C229.062 636.267 223.195 638.267 222.395 638.934C219.728 641.067 219.995 689.734 222.662 692C225.328 694.267 234.128 692.8 251.328 687.2C280.395 677.6 308.662 657.334 326.128 633.334C333.195 623.734 341.862 606.934 345.995 595.067C350.795 581.2 351.195 584.134 341.728 559.734C337.862 549.734 335.462 545.334 333.728 544.934C331.995 544.4 330.795 545.067 329.995 547.067Z" fill="white"/>
    <path d="M638.533 617.867C630.4 621.601 624.266 629.467 622 638.667C619.066 650.667 626.133 665.201 637.733 671.201C651.2 678.134 669.6 672.801 677.333 659.467C682.4 650.934 683.066 642.267 679.333 633.601C672.266 617.201 654.533 610.401 638.533 617.867Z" fill="white"/>
    </svg>
    