<svg width="24" height="24" viewBox="0 0 24 24" fill="none" xmlns="http://www.w3.org/2000/svg">
    <path d="M5.47016 10.75C4.73279 10.7529 4.02305 10.4697 3.49015 9.96003C1.65015 8.21003 0.910155 6.30003 1.34016 4.43003C1.55802 3.50596 2.08769 2.68519 2.83994 2.10597C3.5922 1.52675 4.52109 1.22447 5.47016 1.25003C6.41909 1.22503 7.3477 1.52753 8.09984 2.10666C8.85198 2.68579 9.38178 3.50623 9.60015 4.43003C10.0302 6.30003 9.28016 8.21003 7.45016 9.96003C6.91824 10.4712 6.20786 10.7546 5.47016 10.75ZM2.80016 4.77003C2.42016 6.44003 3.53015 7.92003 4.53015 8.87003C4.78468 9.1132 5.12314 9.24889 5.47516 9.24889C5.82717 9.24889 6.16563 9.1132 6.42016 8.87003C7.42016 7.92003 8.53016 6.44003 8.14016 4.76003C7.99838 4.16867 7.6556 3.6449 7.17041 3.27828C6.68523 2.91165 6.08776 2.72493 5.48015 2.75003C4.86864 2.72435 4.26717 2.91169 3.77841 3.28009C3.28964 3.64849 2.94389 4.1751 2.80016 4.77003Z" fill="#666666"/>
    <path d="M5.50977 6.19995C5.24455 6.19995 4.9902 6.09459 4.80266 5.90706C4.61512 5.71952 4.50977 5.46517 4.50977 5.19995C4.50977 4.93473 4.61512 4.68038 4.80266 4.49284C4.9902 4.30531 5.24455 4.19995 5.50977 4.19995H5.51977C5.78498 4.20128 6.03881 4.30791 6.22541 4.49638C6.41201 4.68485 6.51609 4.93973 6.51477 5.20495C6.51344 5.47017 6.40681 5.72399 6.21834 5.91059C6.02986 6.09719 5.77498 6.20128 5.50977 6.19995Z" fill="#666666"/>
    <path d="M18.4899 22.75C17.7499 22.7512 17.0376 22.4684 16.4999 21.96C14.6499 20.21 13.8999 18.3 14.3399 16.42C14.5625 15.4947 15.0962 14.6739 15.8517 14.095C16.6071 13.5162 17.5385 13.2143 18.4899 13.24C19.4413 13.2143 20.3726 13.5162 21.1281 14.095C21.8835 14.6739 22.4172 15.4947 22.6399 16.42C23.0699 18.29 22.3199 20.21 20.4699 21.95C19.9415 22.4678 19.2296 22.7554 18.4899 22.75ZM18.4899 14.75C17.8772 14.7241 17.2744 14.9112 16.784 15.2794C16.2936 15.6477 15.9458 16.1744 15.7999 16.77C15.4099 18.44 16.5299 19.93 17.5299 20.88C17.7872 21.1257 18.1292 21.2627 18.4849 21.2627C18.8406 21.2627 19.1826 21.1257 19.4399 20.88C20.4399 19.93 21.5599 18.45 21.1699 16.78C21.032 16.1812 20.6881 15.6498 20.1982 15.2787C19.7084 14.9077 19.1037 14.7205 18.4899 14.75Z" fill="#666666"/>
    <path d="M18.5303 18.2C18.2651 18.2 18.0107 18.0946 17.8232 17.9071C17.6356 17.7195 17.5303 17.4652 17.5303 17.2C17.5303 16.9347 17.6356 16.6804 17.8232 16.4928C18.0107 16.3053 18.2651 16.2 18.5303 16.2H18.5403C18.8055 16.2 19.0598 16.3053 19.2474 16.4928C19.4349 16.6804 19.5403 16.9347 19.5403 17.2C19.5371 17.4659 19.4294 17.72 19.2404 17.9071C19.0514 18.0942 18.7963 18.1994 18.5303 18.2Z" fill="#666666"/>
    <path d="M12.0002 19.75H9.32019C8.76093 19.7493 8.21513 19.5783 7.75556 19.2596C7.29599 18.9409 6.94447 18.4896 6.74786 17.9661C6.55125 17.4425 6.51889 16.8714 6.65509 16.329C6.79129 15.7866 7.08957 15.2986 7.51019 14.93L15.5002 7.93996C15.6922 7.77309 15.8286 7.55153 15.8912 7.30496C15.9538 7.05839 15.9395 6.79858 15.8503 6.56034C15.7611 6.3221 15.6013 6.11682 15.3921 5.97198C15.183 5.82714 14.9346 5.74968 14.6802 5.74996H12.0002C11.8017 5.74865 11.6117 5.66921 11.4713 5.52884C11.3309 5.38847 11.2515 5.19847 11.2502 4.99996C11.2515 4.80145 11.3309 4.61145 11.4713 4.47108C11.6117 4.33071 11.8017 4.25127 12.0002 4.24996H14.6802C15.2398 4.24562 15.7871 4.41431 16.2471 4.73294C16.7071 5.05157 17.0575 5.50457 17.2502 6.02996C17.4507 6.55344 17.4853 7.12592 17.3494 7.66975C17.2134 8.21358 16.9135 8.70242 16.4902 9.06996L8.50019 16.06C8.30818 16.2268 8.17174 16.4484 8.10916 16.695C8.04658 16.9415 8.06085 17.2013 8.15006 17.4396C8.23926 17.6778 8.39914 17.8831 8.60827 18.0279C8.8174 18.1728 9.0658 18.2502 9.32019 18.25H12.0002C12.1991 18.25 12.3899 18.329 12.5305 18.4696C12.6712 18.6103 12.7502 18.801 12.7502 19C12.7502 19.1989 12.6712 19.3896 12.5305 19.5303C12.3899 19.6709 12.1991 19.75 12.0002 19.75Z" fill="#666666"/>
    <path d="M12.0002 19.75H9.32019C8.76093 19.7493 8.21513 19.5783 7.75556 19.2596C7.29599 18.9409 6.94447 18.4896 6.74786 17.9661C6.55125 17.4425 6.51889 16.8714 6.65509 16.329C6.79129 15.7866 7.08957 15.2986 7.51019 14.93L15.5002 7.93996C15.6922 7.77309 15.8286 7.55153 15.8912 7.30496C15.9538 7.05839 15.9395 6.79858 15.8503 6.56034C15.7611 6.3221 15.6013 6.11682 15.3921 5.97198C15.183 5.82714 14.9346 5.74968 14.6802 5.74996H12.0002C11.8017 5.74865 11.6117 5.66921 11.4713 5.52884C11.3309 5.38847 11.2515 5.19847 11.2502 4.99996C11.2515 4.80145 11.3309 4.61145 11.4713 4.47108C11.6117 4.33071 11.8017 4.25127 12.0002 4.24996H14.6802C15.2398 4.24562 15.7871 4.41431 16.2471 4.73294C16.7071 5.05157 17.0575 5.50457 17.2502 6.02996C17.4507 6.55344 17.4853 7.12592 17.3494 7.66975C17.2134 8.21358 16.9135 8.70242 16.4902 9.06996L8.50019 16.06C8.30818 16.2268 8.17174 16.4484 8.10916 16.695C8.04658 16.9415 8.06085 17.2013 8.15006 17.4396C8.23926 17.6778 8.39914 17.8831 8.60827 18.0279C8.8174 18.1728 9.0658 18.2502 9.32019 18.25H12.0002C12.1991 18.25 12.3899 18.329 12.5305 18.4696C12.6712 18.6103 12.7502 18.801 12.7502 19C12.7502 19.1989 12.6712 19.3896 12.5305 19.5303C12.3899 19.6709 12.1991 19.75 12.0002 19.75Z" fill="#666666"/>
    </svg>
    