<svg width="24" height="24" viewBox="0 0 24 24" fill="none" xmlns="http://www.w3.org/2000/svg">
    <path d="M23.181 9.65498C22.685 9.20298 22.04 8.97998 21.372 9.00298C20.702 9.03498 20.084 9.32498 19.633 9.82098L15.901 13.923C15.587 12.815 14.566 12 13.358 12H3.5C1.57 12 0 13.57 0 15.5V20.5C0 22.43 1.57 24 3.5 24H9.465C12.171 24 14.756 22.841 16.558 20.82L23.364 13.18C24.275 12.158 24.193 10.577 23.181 9.65498ZM22.618 12.516L15.812 20.155C14.2 21.964 11.887 23.001 9.465 23.001H3.5C2.122 23.001 1 21.88 1 20.501V15.501C1 14.122 2.122 13.001 3.5 13.001H13.357C14.262 13.001 15 13.738 15 14.644C15 15.456 14.395 16.155 13.602 16.268L7.441 17.005C7.167 17.037 6.971 17.286 7.004 17.561C7.037 17.834 7.278 18.04 7.56 17.998L13.732 17.26C14.754 17.114 15.578 16.381 15.878 15.436L20.374 10.496C20.645 10.198 21.017 10.023 21.42 10.004C21.823 9.98398 22.21 10.124 22.508 10.397C23.117 10.952 23.166 11.903 22.618 12.519V12.516ZM7 6.49998V5.49998C7 5.22398 7.224 4.99998 7.5 4.99998H8.5C8.776 4.99998 9 5.22398 9 5.49998V6.49998C9 6.77598 8.776 6.99998 8.5 6.99998H7.5C7.224 6.99998 7 6.77598 7 6.49998ZM5.5 9.99998H10.5C11.878 9.99998 13 8.87798 13 7.49998V4.18698C13 3.35398 12.588 2.57998 11.898 2.11498L9.398 0.42798C8.548 -0.14502 7.451 -0.14502 6.601 0.42798L4.101 2.11498C3.411 2.57998 2.999 3.35498 2.999 4.18698V7.49998C2.999 8.87798 4.122 9.99998 5.5 9.99998ZM4 4.18698C4 3.68698 4.247 3.22298 4.661 2.94398L7.161 1.25698C7.416 1.08498 7.708 0.99898 8 0.99898C8.292 0.99898 8.584 1.08498 8.839 1.25698L11.339 2.94398C11.753 3.22298 12 3.68798 12 4.18698V7.49998C12 8.32698 11.327 8.99998 10.5 8.99998H5.5C4.673 8.99998 4 8.32698 4 7.49998V4.18698Z" fill="#333333"/>
    </svg>
    