<svg width="29" height="29" viewBox="0 0 29 29" fill="none" xmlns="http://www.w3.org/2000/svg">
	<path d="M14.3902 14.3916C15.5019 17.0526 17.707 18.8923 21.1313 20.0141C21.6719 20.1906 22.0639 20.6319 22.1819 21.1926C22.2991 21.7536 22.1159 22.314 21.6916 22.6919C20.5049 23.749 18.6914 24.6685 16.9554 25.0908C12.2144 26.2418 7.07925 23.971 4.74689 19.6888C1.94656 14.5481 3.63205 8.11647 8.58196 5.04716C9.09974 4.72654 9.64634 4.45348 10.2188 4.21136C11.3708 3.73007 12.5755 3.42947 13.6172 3.36391C14.1834 3.32805 14.7107 3.59157 15.0283 4.06888C15.3451 4.54655 15.3827 5.13589 15.1282 5.64454C13.5196 8.86884 13.2781 11.7296 14.3902 14.3916ZM13.6757 4.27929C12.7322 4.33962 11.6332 4.61495 10.5708 5.05878C10.0481 5.2821 9.54136 5.53156 9.06473 5.82704C4.52717 8.63964 2.98406 14.5369 5.55213 19.2501C7.68903 23.1738 12.3945 25.2555 16.739 24.1996C17.2776 24.069 17.8234 23.8867 18.3512 23.6662C19.3916 23.2315 20.3654 22.6469 21.0819 22.0078C21.2578 21.8509 21.3337 21.6165 21.284 21.3809C21.2348 21.1442 21.0711 20.9592 20.8464 20.8852C17.154 19.6757 14.7652 17.6674 13.5447 14.7458C12.3241 11.8242 12.5744 8.71331 14.3091 5.23667C14.4143 5.02481 14.3978 4.77837 14.264 4.57696C14.1314 4.37604 13.9109 4.26448 13.6757 4.27929Z" fill="#333333" />
	<path d="M17.206 9.24128C17.6732 9.04612 18.2101 9.26662 18.4053 9.73378C18.6004 10.2009 18.3799 10.7378 17.9128 10.933C17.4456 11.1282 16.9087 10.9077 16.7135 10.4405C16.5184 9.97335 16.7389 9.43644 17.206 9.24128Z" fill="#333333" />
	<path d="M20.8676 3.73786C21.3348 3.5427 21.8717 3.7632 22.0669 4.23036C22.262 4.69752 22.0415 5.23443 21.5744 5.42959C21.1072 5.62475 20.5703 5.40425 20.3751 4.93709C20.18 4.46994 20.4005 3.93302 20.8676 3.73786Z" fill="#333333" />
	<path d="M25.3204 12.8315C25.517 12.8169 25.7012 12.9297 25.7772 13.1116C25.8531 13.2934 25.8039 13.5038 25.6554 13.6334L24.7358 14.4358L24.826 15.6529C24.8551 16.046 24.2833 16.2849 24.0241 15.9879L23.2255 15.0727L22.0242 15.1841C21.8282 15.2024 21.6417 15.0935 21.562 14.9122C21.4823 14.7309 21.5274 14.5203 21.674 14.3886L22.5896 13.56L22.499 12.3371C22.4844 12.1405 22.5972 11.9563 22.7791 11.8803C22.9609 11.8043 23.1713 11.8536 23.3009 12.0021L24.1033 12.9217L25.3204 12.8315Z" fill="#333333" />
</svg>
