<svg width="24" height="24" viewBox="0 0 24 24" fill="none" xmlns="http://www.w3.org/2000/svg">
<path d="M12.0201 20.5299C9.68523 20.5324 7.36533 20.1575 5.15007 19.4199C4.75167 19.2946 4.38659 19.0813 4.08191 18.7956C3.77723 18.51 3.54077 18.1594 3.39007 17.7699C3.24893 17.3792 3.19987 16.9611 3.2467 16.5483C3.29353 16.1355 3.43499 15.7391 3.66007 15.3899L4.81007 13.4799C5.0821 12.963 5.23903 12.3933 5.27007 11.8099V8.91992C5.27007 7.12971 5.98122 5.41282 7.24709 4.14695C8.51296 2.88108 10.2299 2.16992 12.0201 2.16992C13.8103 2.16992 15.5272 2.88108 16.793 4.14695C18.0589 5.41282 18.7701 7.12971 18.7701 8.91992V11.8099C18.8028 12.3958 18.9585 12.9682 19.2271 13.4899L20.3671 15.3899C20.5792 15.745 20.7091 16.1431 20.7472 16.555C20.7853 16.9668 20.7305 17.382 20.5871 17.7699C20.4455 18.1564 20.218 18.5057 19.9218 18.7915C19.6256 19.0773 19.2684 19.2922 18.8771 19.4199C16.6664 20.158 14.3507 20.5328 12.0201 20.5299ZM12.0201 3.66992C10.6282 3.67151 9.29373 4.22514 8.30951 5.20937C7.32529 6.19359 6.77165 7.52802 6.77007 8.91992V11.8099C6.73442 12.6635 6.50532 13.4978 6.10007 14.2499L4.95007 16.1599C4.84308 16.3179 4.77391 16.4984 4.74789 16.6874C4.72188 16.8764 4.73973 17.0689 4.80007 17.2499C4.87291 17.4283 4.98555 17.5878 5.1294 17.716C5.27324 17.8443 5.44449 17.9379 5.63007 17.9899C9.77847 19.3899 14.2717 19.3899 18.4201 17.9899C18.5971 17.9319 18.7586 17.8342 18.892 17.7042C19.0255 17.5742 19.1274 17.4154 19.1901 17.2399C19.2559 17.064 19.2811 16.8755 19.2637 16.6885C19.2464 16.5014 19.1871 16.3208 19.0901 16.1599L17.9401 14.2499C17.5327 13.4951 17.3035 12.657 17.2701 11.7999V8.91992C17.2702 8.23044 17.1345 7.5477 16.8707 6.91068C16.6069 6.27366 16.2202 5.69485 15.7327 5.20732C15.2451 4.71978 14.6663 4.33308 14.0293 4.06929C13.3923 3.8055 12.7095 3.66979 12.0201 3.66992Z" fill="#333333"/>
<path d="M13.8802 3.93976C13.8092 3.93961 13.7385 3.92951 13.6702 3.90976C13.3942 3.83273 13.1136 3.77262 12.8302 3.72976C12.0133 3.61702 11.1818 3.67836 10.3902 3.90976C10.2557 3.95149 10.1121 3.95419 9.97613 3.91753C9.84014 3.88087 9.71734 3.80636 9.62203 3.70266C9.52671 3.59897 9.46279 3.47035 9.43769 3.33175C9.41259 3.19316 9.42735 3.05029 9.48024 2.91976C9.67904 2.40659 10.0286 1.96567 10.4829 1.65507C10.9372 1.34447 11.4749 1.17876 12.0252 1.17976C12.5769 1.17578 13.1166 1.34025 13.5722 1.65117C14.0279 1.96209 14.3778 2.40467 14.5752 2.91976C14.6256 3.05013 14.6391 3.19181 14.6144 3.32936C14.5898 3.46691 14.5278 3.59503 14.4352 3.69976C14.3636 3.77501 14.2775 3.83504 14.1822 3.87628C14.0868 3.91751 13.9841 3.9391 13.8802 3.93976Z" fill="#333333"/>
<path d="M12.0195 22.8105C11.0256 22.8081 10.073 22.4127 9.36953 21.7105C8.66737 21.0071 8.27194 20.0545 8.26953 19.0605H9.76953C9.77169 19.6568 10.0088 20.2281 10.4295 20.6505C10.852 21.0712 11.4233 21.3084 12.0195 21.3105C12.616 21.3098 13.1879 21.0724 13.6096 20.6507C14.0314 20.2289 14.2687 19.657 14.2695 19.0605H15.7695C15.7693 20.055 15.3741 21.0087 14.6709 21.7119C13.9677 22.4151 13.014 22.8103 12.0195 22.8105Z" fill="#333333"/>
</svg>
