<svg width="24" height="24" viewBox="0 0 24 24" fill="none" xmlns="http://www.w3.org/2000/svg">
	<path d="M12.1599 11.62H12.0799C12.0203 11.61 11.9595 11.61 11.8999 11.62C10.5485 11.5819 9.26632 11.0134 8.33075 10.0374C7.39518 9.06139 6.88136 7.75637 6.90041 6.40452C6.91947 5.05268 7.46986 3.76266 8.43256 2.81342C9.39527 1.86419 10.6929 1.33203 12.0449 1.33203C13.3969 1.33203 14.6945 1.86419 15.6572 2.81342C16.6199 3.76266 17.1703 5.05268 17.1894 6.40452C17.2084 7.75637 16.6946 9.06139 15.7591 10.0374C14.8235 11.0134 13.5413 11.5819 12.1899 11.62H12.1599ZM11.9999 2.74999C11.0309 2.74465 10.0988 3.12108 9.40533 3.7978C8.71182 4.47453 8.31267 5.39712 8.29427 6.36593C8.27586 7.33473 8.63969 8.27181 9.307 8.97439C9.97431 9.67697 10.8914 10.0885 11.8599 10.12C11.9663 10.1096 12.0735 10.1096 12.1799 10.12C13.1426 10.0752 14.0495 9.65518 14.7063 8.94998C15.3632 8.24477 15.7178 7.31041 15.6943 6.34696C15.6708 5.38351 15.271 4.46757 14.5804 3.79527C13.8899 3.12297 12.9636 2.74776 11.9999 2.74999Z" fill="#8295A5" />
	<path d="M12.1701 22.5499C10.2563 22.5856 8.37327 22.0645 6.7501 21.0499C6.12073 20.6883 5.59337 20.173 5.21735 19.5522C4.84134 18.9313 4.62897 18.2252 4.6001 17.4999C4.62979 16.7722 4.84232 16.0636 5.21808 15.4397C5.59384 14.8158 6.12073 14.2965 6.7501 13.9299C8.38928 12.9532 10.262 12.4375 12.1701 12.4375C14.0782 12.4375 15.9509 12.9532 17.5901 13.9299C18.218 14.2932 18.7443 14.8089 19.1201 15.4294C19.4959 16.0499 19.7091 16.7552 19.7401 17.4799C19.7104 18.2077 19.4979 18.9162 19.1221 19.5402C18.7464 20.1641 18.2195 20.6833 17.5901 21.0499C15.9664 22.0634 14.0838 22.5844 12.1701 22.5499ZM7.5801 15.1899C7.15917 15.4221 6.80315 15.7561 6.54461 16.1614C6.28606 16.5667 6.13324 17.0303 6.1001 17.5099C6.13585 17.9862 6.28994 18.446 6.54839 18.8476C6.80683 19.2493 7.16146 19.58 7.5801 19.8099C8.97076 20.6299 10.5557 21.0624 12.1701 21.0624C13.7845 21.0624 15.3694 20.6299 16.7601 19.8099C17.181 19.5777 17.537 19.2437 17.7956 18.8384C18.0541 18.4331 18.207 17.9695 18.2401 17.4899C18.2043 17.0137 18.0503 16.5539 17.7918 16.1522C17.5334 15.7506 17.1787 15.4198 16.7601 15.1899C15.3678 14.3747 13.7835 13.945 12.1701 13.945C10.5567 13.945 8.97239 14.3747 7.5801 15.1899Z" fill="#8295A5" />
</svg>
