<svg width="24" height="24" viewBox="0 0 24 24" fill="none" xmlns="http://www.w3.org/2000/svg">
	<path d="M14.9998 22.7497H8.99984C7.8692 22.7762 6.74072 22.6381 5.64984 22.3397C5.4852 22.2893 5.34231 22.185 5.24418 22.0435C5.14605 21.902 5.09838 21.7316 5.10884 21.5597C5.35984 18.5697 8.38984 16.2197 11.9998 16.2197C15.6098 16.2197 18.6298 18.5597 18.8898 21.5597C18.9059 21.7325 18.8605 21.9053 18.7618 22.048C18.663 22.1906 18.5172 22.2939 18.3498 22.3397C17.259 22.6381 16.1305 22.7762 14.9998 22.7497ZM6.71984 21.0597C7.47193 21.1965 8.23549 21.2601 8.99984 21.2497H14.9998C15.7642 21.2601 16.5277 21.1965 17.2798 21.0597C16.7498 19.1397 14.5598 17.7197 11.9998 17.7197C9.43984 17.7197 7.24984 19.1397 6.71984 21.0597Z" fill="#6A8094"/>
	<path d="M15 2H9C4 2 2 4 2 9V15C2 18.78 3.14 20.85 5.86 21.62C6.08 19.02 8.75 16.97 12 16.97C15.25 16.97 17.92 19.02 18.14 21.62C20.86 20.85 22 18.78 22 15V9C22 4 20 2 15 2ZM12 14.17C11.291 14.171 10.5975 13.9617 10.0074 13.5686C9.41734 13.1755 8.95706 12.6162 8.68481 11.9615C8.41256 11.3068 8.34056 10.5861 8.47792 9.89051C8.61527 9.19489 8.95582 8.55563 9.45649 8.05356C9.95716 7.55149 10.5955 7.20917 11.2907 7.06987C11.9859 6.93057 12.7069 7.00056 13.3623 7.27098C14.0178 7.54141 14.5783 8.00013 14.973 8.58913C15.3678 9.17813 15.579 9.87095 15.58 10.58C15.5807 11.0508 15.4886 11.5171 15.309 11.9523C15.1295 12.3875 14.8659 12.7831 14.5335 13.1164C14.2011 13.4498 13.8062 13.7144 13.3715 13.8952C12.9368 14.076 12.4708 14.1693 12 14.17Z" stroke="#6A8094" stroke-width="1.5" stroke-linecap="round" stroke-linejoin="round"/>
	<path d="M12.0002 14.92C11.1428 14.921 10.3044 14.6677 9.59092 14.1922C8.87748 13.7167 8.32107 13.0403 7.99206 12.2486C7.66304 11.4568 7.57618 10.5853 7.74248 9.74419C7.90878 8.90309 8.32076 8.13019 8.92632 7.52323C9.53188 6.91627 10.3038 6.50251 11.1445 6.33428C11.9853 6.16604 12.857 6.25088 13.6495 6.57807C14.442 6.90526 15.1196 7.46011 15.5968 8.17245C16.074 8.88478 16.3292 9.72262 16.3302 10.58C16.3302 11.7293 15.8743 12.8317 15.0625 13.6453C14.2508 14.4589 13.1495 14.9174 12.0002 14.92ZM12.0002 7.75C11.439 7.74901 10.8902 7.91457 10.4232 8.2257C9.95626 8.53683 9.59211 8.97955 9.37692 9.49778C9.16172 10.016 9.10516 10.5864 9.21439 11.1369C9.32362 11.6873 9.59373 12.1929 9.99051 12.5896C10.3873 12.9864 10.8929 13.2565 11.4433 13.3658C11.9937 13.475 12.5641 13.4184 13.0824 13.2032C13.6006 12.988 14.0433 12.6239 14.3545 12.1569C14.6656 11.6899 14.8311 11.1411 14.8302 10.58C14.8291 9.82976 14.5306 9.11055 14.0001 8.58006C13.4696 8.04956 12.7504 7.75106 12.0002 7.75Z" fill="#6A8094"/>
	</svg>
	