<svg width="33" height="32" viewBox="0 0 33 32" fill="none" xmlns="http://www.w3.org/2000/svg">
	<path d="M16.0178 0C12.8498 0 9.75293 0.932331 7.11881 2.67909C4.48469 4.42585 2.43164 6.90859 1.21929 9.81335C0.00694027 12.7181 -0.310266 15.9144 0.307785 18.9981C0.925837 22.0818 2.45139 24.9143 4.69152 27.1375C6.93166 29.3607 9.78576 30.8748 12.8929 31.4881C16.0001 32.1015 19.2207 31.7867 22.1476 30.5835C25.0745 29.3803 27.5761 27.3428 29.3362 24.7286C31.0962 22.1144 32.0357 19.0409 32.0357 15.8968C32.0357 11.6807 30.3481 7.63729 27.3442 4.65606C24.3402 1.67484 20.266 0 16.0178 0ZM20.2786 18.6469L18.2283 19.8233L16.178 20.9997C13.5351 22.5099 11.3727 21.2699 11.3727 18.2495V13.5441C11.3727 10.5078 13.5351 9.28373 16.178 10.7939L18.2283 11.9703L20.2786 13.1466C22.9215 14.6568 22.9215 17.1367 20.2786 18.6469Z" fill="white" />
</svg>
