<svg width="20" height="20" viewBox="0 0 20 20" fill="none" xmlns="http://www.w3.org/2000/svg">
	<g clip-path="url(#clip0_86_592)">
		<path d="M13.4721 8.61148H11.3887C10.2401 8.61148 9.30539 9.5462 9.30539 10.6948V11.3893H8.41789C8.53734 11.1844 8.61095 10.949 8.61095 10.6948C8.61095 9.92884 7.98803 9.30592 7.22206 9.30592C6.45609 9.30592 5.83317 9.92884 5.83317 10.6948C5.83317 10.949 5.90678 11.1844 6.02623 11.3893H5.13873V8.9587C5.13873 8.76704 4.98317 8.61148 4.7915 8.61148C4.59984 8.61148 4.44428 8.76704 4.44428 8.9587V17.9865C4.44428 18.1781 4.59984 18.3337 4.7915 18.3337C4.98317 18.3337 5.13873 18.1781 5.13873 17.9865V16.9448H14.8609V17.9865C14.8609 18.1781 15.0165 18.3337 15.2082 18.3337C15.3998 18.3337 15.5554 18.1781 15.5554 17.9865V10.6948C15.5554 9.5462 14.6207 8.61148 13.4721 8.61148ZM9.99984 10.6948C9.99984 9.92884 10.6228 9.30592 11.3887 9.30592H13.4721C14.238 9.30592 14.8609 9.92884 14.8609 10.6948V11.3893H9.99984V10.6948ZM6.52761 10.6948C6.52761 10.3122 6.83942 10.0004 7.22206 10.0004C7.6047 10.0004 7.9165 10.3122 7.9165 10.6948C7.9165 11.0775 7.6047 11.3893 7.22206 11.3893C6.83942 11.3893 6.52761 11.0775 6.52761 10.6948ZM5.13873 12.0837H14.8609V13.4726H11.7359C10.5873 13.4726 9.65261 14.4073 9.65261 15.5559V16.2504H8.41789C8.53734 16.0455 8.61095 15.8101 8.61095 15.5559C8.61095 14.79 7.98803 14.167 7.22206 14.167C6.45609 14.167 5.83317 14.79 5.83317 15.5559C5.83317 15.8101 5.90678 16.0455 6.02623 16.2504H5.13873V12.0837ZM6.52761 15.5559C6.52761 15.1733 6.83942 14.8615 7.22206 14.8615C7.6047 14.8615 7.9165 15.1733 7.9165 15.5559C7.9165 15.9386 7.6047 16.2504 7.22206 16.2504C6.83942 16.2504 6.52761 15.9386 6.52761 15.5559ZM10.3471 16.2504V15.5559C10.3471 14.79 10.97 14.167 11.7359 14.167H14.8609V16.2504H10.3471ZM18.3332 8.30662V17.9865C18.3332 18.1781 18.1776 18.3337 17.9859 18.3337C17.7943 18.3337 17.6387 18.1781 17.6387 17.9865V8.30662C17.6387 7.4969 17.2387 6.74412 16.5679 6.29204L11.3596 2.77745C10.5339 2.21981 9.4665 2.21981 8.64011 2.77745L3.43178 6.29204C2.76095 6.74481 2.36095 7.49759 2.36095 8.30662V17.9865C2.36095 18.1781 2.20539 18.3337 2.01373 18.3337C1.82206 18.3337 1.6665 18.1781 1.6665 17.9865V8.30662C1.6665 7.26634 2.18109 6.29759 3.04359 5.71634L8.25192 2.20176C9.31442 1.48579 10.6859 1.48648 11.7478 2.20176L16.9561 5.71634C17.8186 6.29759 18.3332 7.26634 18.3332 8.30662Z" fill="#666666" />
	</g>
	<defs>
		<clipPath id="clip0_86_592">
			<rect width="16.6667" height="16.6667" fill="white" transform="translate(1.6665 1.66663)" />
		</clipPath>
	</defs>
</svg>
