<svg width="24" height="24" viewBox="0 0 24 24" fill="none" xmlns="http://www.w3.org/2000/svg">
	<path d="M11 20.75C9.07164 20.75 7.18657 20.1782 5.58319 19.1068C3.97982 18.0355 2.73013 16.5127 1.99218 14.7312C1.25422 12.9496 1.06114 10.9892 1.43735 9.09787C1.81355 7.20656 2.74215 5.46927 4.10571 4.10571C5.46927 2.74215 7.20656 1.81355 9.09787 1.43735C10.9892 1.06114 12.9496 1.25422 14.7312 1.99218C16.5127 2.73013 18.0355 3.97982 19.1068 5.58319C20.1782 7.18657 20.75 9.07164 20.75 11C20.7484 13.5854 19.7207 16.0644 17.8925 17.8925C16.0644 19.7207 13.5854 20.7484 11 20.75ZM11 2.75C9.36831 2.75 7.77326 3.23386 6.41655 4.14038C5.05984 5.0469 4.00242 6.33538 3.378 7.84287C2.75358 9.35036 2.5902 11.0092 2.90853 12.6095C3.22685 14.2098 4.01259 15.6799 5.16637 16.8336C6.32016 17.9874 7.79017 18.7732 9.39051 19.0915C10.9909 19.4098 12.6497 19.2464 14.1571 18.622C15.6646 17.9976 16.9531 16.9402 17.8596 15.5835C18.7661 14.2268 19.25 12.6317 19.25 11C19.2479 8.81262 18.378 6.71543 16.8313 5.16871C15.2846 3.622 13.1874 2.75212 11 2.75Z" fill="#67B39F" />
	<path d="M20.1599 22.79C20.0829 22.7887 20.006 22.7821 19.9299 22.77C19.4599 22.71 18.6099 22.39 18.1299 20.96C18.0028 20.6201 17.9592 20.2547 18.0027 19.8945C18.0462 19.5343 18.1755 19.1898 18.3799 18.89C18.6008 18.6013 18.8877 18.3698 19.2165 18.2149C19.5454 18.06 19.9066 17.9863 20.2699 18C20.6976 17.9608 21.1278 18.041 21.5127 18.2316C21.8975 18.4223 22.222 18.716 22.4499 19.08C22.6241 19.4732 22.6874 19.9067 22.6327 20.3333C22.5781 20.7599 22.4076 21.1634 22.1399 21.5C21.9487 21.8672 21.666 22.1788 21.3192 22.4048C20.9723 22.6308 20.573 22.7635 20.1599 22.79ZM19.5599 20.49C19.7299 21.01 19.9699 21.27 20.1299 21.29C20.2899 21.31 20.5899 21.12 20.8999 20.67C21.1899 20.24 21.2099 19.93 21.1399 19.79C21.0699 19.65 20.7899 19.5 20.2699 19.5C20.1449 19.4899 20.0193 19.509 19.903 19.5558C19.7867 19.6027 19.6829 19.676 19.5999 19.77C19.5373 19.8785 19.5011 20.0002 19.4942 20.1252C19.4872 20.2503 19.5097 20.3752 19.5599 20.49Z" fill="#67B39F" />
</svg>
