<svg width="24" height="24" viewBox="0 0 24 24" fill="none" xmlns="http://www.w3.org/2000/svg">
    <path d="M15.26 22.25H8.73998C3.82998 22.25 1.72998 20.15 1.72998 15.24V15.11C1.72998 10.67 3.47998 8.52997 7.39998 8.15797C7.59784 8.14428 7.79339 8.20727 7.94606 8.33388C8.09873 8.46048 8.19682 8.64099 8.21998 8.83797C8.22948 8.93652 8.2194 9.03597 8.19032 9.13061C8.16124 9.22524 8.11373 9.31319 8.05053 9.3894C7.98733 9.46561 7.90969 9.52857 7.82207 9.57466C7.73445 9.62076 7.63858 9.64907 7.53998 9.65797C4.39998 9.94797 3.22998 11.428 3.22998 15.118V15.248C3.22998 19.318 4.66998 20.758 8.73998 20.758H15.26C19.33 20.758 20.77 19.318 20.77 15.248V15.118C20.77 11.408 19.58 9.92797 16.38 9.65797C16.2806 9.65143 16.1836 9.62512 16.0945 9.58058C16.0055 9.53605 15.9262 9.47418 15.8614 9.3986C15.7965 9.32303 15.7475 9.23527 15.717 9.14048C15.6865 9.04569 15.6753 8.94576 15.6839 8.84657C15.6926 8.74738 15.721 8.65091 15.7674 8.56283C15.8138 8.47474 15.8774 8.39681 15.9543 8.33361C16.0312 8.2704 16.12 8.22319 16.2154 8.19475C16.3109 8.16631 16.411 8.1572 16.51 8.16797C20.49 8.50797 22.27 10.658 22.27 15.128V15.258C22.27 20.15 20.17 22.25 15.26 22.25Z" fill="#666666"/>
    <path d="M12 15.75C11.8015 15.7487 11.6115 15.6692 11.4711 15.5289C11.3307 15.3885 11.2513 15.1985 11.25 15V3.62C11.2513 3.42149 11.3307 3.23148 11.4711 3.09111C11.6115 2.95074 11.8015 2.87131 12 2.87C12.1985 2.87131 12.3885 2.95074 12.5289 3.09111C12.6693 3.23148 12.7487 3.42149 12.75 3.62V15C12.7487 15.1985 12.6693 15.3885 12.5289 15.5289C12.3885 15.6692 12.1985 15.7487 12 15.75Z" fill="#666666"/>
    <path d="M15.3512 6.6C15.2526 6.60035 15.155 6.58108 15.064 6.54331C14.973 6.50554 14.8905 6.45002 14.8212 6.38L12.0032 3.56L9.18317 6.38C9.04099 6.51248 8.85295 6.5846 8.65864 6.58117C8.46434 6.57774 8.27896 6.49903 8.14155 6.36162C8.00413 6.22421 7.92542 6.03882 7.92199 5.84452C7.91856 5.65022 7.99069 5.46217 8.12317 5.32L11.4712 1.971C11.6123 1.83152 11.8027 1.7533 12.0012 1.7533C12.1996 1.7533 12.39 1.83152 12.5312 1.971L15.8812 5.321C16.0206 5.46214 16.0989 5.65257 16.0989 5.851C16.0989 6.04943 16.0206 6.23986 15.8812 6.381C15.8124 6.45162 15.7299 6.50747 15.6387 6.54513C15.5476 6.58278 15.4498 6.60145 15.3512 6.6Z" fill="#666666"/>
    </svg>
    