<svg width="24" height="24" viewBox="0 0 24 24" fill="none" xmlns="http://www.w3.org/2000/svg">
<path d="M16.1664 17.8331C16.1664 20.1332 14.2997 22 11.9995 22H6.16591C3.86579 22 1.99902 20.1332 1.99902 17.8331V11.9995C1.99902 9.69935 3.86579 7.83259 6.16591 7.83259H6.99928C7.45764 7.83259 7.83266 8.20761 7.83266 8.66596C7.83266 9.12432 7.45764 9.49934 6.99928 9.49934H6.16591C4.79083 9.49934 3.66578 10.6244 3.66578 11.9995V17.8331C3.66578 19.2082 4.79083 20.3332 6.16591 20.3332H11.9995C13.3746 20.3332 14.4997 19.2082 14.4997 17.8331C14.4997 17.3747 14.8747 16.9997 15.333 16.9997C15.7914 16.9997 16.1664 17.3747 16.1664 17.8331ZM21.275 6.90754L16.7665 2.24896C16.4498 1.91561 15.9164 1.90728 15.5914 2.2323C15.2664 2.55731 15.2497 3.08234 15.5747 3.40736L19.8583 7.82425H12.8329C10.5328 7.82425 8.66604 9.69102 8.66604 11.9911V16.158C8.66604 16.6164 9.04106 16.9914 9.49941 16.9914C9.95777 16.9914 10.3328 16.6164 10.3328 16.158V11.9911C10.3328 10.6161 11.4578 9.491 12.8329 9.491H19.85L15.5664 13.9079C15.2497 14.2413 15.2497 14.7663 15.5831 15.083C15.7414 15.2413 15.9581 15.3163 16.1664 15.3163C16.3748 15.3163 16.5998 15.233 16.7665 15.0663L21.2667 10.4244C22.2417 9.44934 22.2417 7.86592 21.275 6.8992V6.90754Z" fill="#333333"/>
</svg>
