<svg width="24" height="24" viewBox="0 0 24 24" fill="none" xmlns="http://www.w3.org/2000/svg">
<path d="M11.9999 22.7599C10.9178 22.7723 9.85999 22.4395 8.9799 21.8099L4.6799 18.5999C4.07943 18.1047 3.58877 17.4898 3.23925 16.7943C2.88973 16.0989 2.68901 15.3382 2.6499 14.5609L2.6499 7.1199C2.68083 6.31846 2.94009 5.54254 3.39717 4.88349C3.85425 4.22444 4.49012 3.70971 5.2299 3.3999L10.2199 1.5309C11.3709 1.16092 12.6089 1.16092 13.7599 1.5309L18.7499 3.4009C19.4897 3.71071 20.1255 4.22544 20.5826 4.88449C21.0397 5.54354 21.299 6.31946 21.3299 7.1209V14.5529C21.2918 15.3306 21.0916 16.0918 20.742 16.7875C20.3924 17.4832 19.9012 18.0982 19.2999 18.5929L14.9999 21.8029C14.1314 22.4413 13.0776 22.7774 11.9999 22.7599ZM10.7499 2.9409L5.7599 4.8099C5.30808 5.01541 4.92057 5.33981 4.63876 5.74842C4.35696 6.15704 4.19144 6.63453 4.1599 7.1299V14.5599C4.19773 15.1035 4.34267 15.6343 4.58637 16.1217C4.83006 16.6091 5.16772 17.0435 5.5799 17.3999L9.8799 20.6099C10.5088 21.0304 11.2484 21.2549 12.0049 21.2549C12.7615 21.2549 13.501 21.0304 14.1299 20.6099L18.4299 17.3999C18.8429 17.0442 19.1812 16.61 19.4249 16.1224C19.6687 15.6349 19.8132 15.1037 19.8499 14.5599V7.1199C19.8156 6.62529 19.649 6.14899 19.3675 5.74084C19.0861 5.3327 18.7 5.00771 18.2499 4.7999L13.2599 2.9299C12.4401 2.68845 11.5676 2.69227 10.7499 2.9409Z" fill="#333333"/>
<path d="M10.6591 14.232C10.5606 14.2324 10.463 14.2131 10.372 14.1753C10.281 14.1376 10.1985 14.082 10.1291 14.012L8.52014 12.399C8.38766 12.2568 8.31554 12.0688 8.31896 11.8745C8.32239 11.6802 8.4011 11.4948 8.53852 11.3574C8.67593 11.22 8.86132 11.1413 9.05562 11.1378C9.24992 11.1344 9.43796 11.2065 9.58014 11.339L10.6601 12.419L14.4301 8.65002C14.5723 8.51754 14.7604 8.44542 14.9547 8.44885C15.149 8.45228 15.3343 8.53099 15.4718 8.6684C15.6092 8.80581 15.6879 8.9912 15.6913 9.1855C15.6947 9.3798 15.6226 9.56785 15.4901 9.71002L11.1901 14.01C11.1209 14.0805 11.0382 14.1365 10.947 14.1746C10.8559 14.2127 10.758 14.2322 10.6591 14.232Z" fill="#333333"/>
</svg>
