<svg width="32" height="31" viewBox="0 0 32 31" fill="none" xmlns="http://www.w3.org/2000/svg">
	<path d="M14.4863 2.27051C15.082 0.979143 16.918 0.97914 17.5137 2.27051L20.2998 8.31152C20.7854 9.36421 21.7834 10.0891 22.9346 10.2256L29.541 11.0088C30.9531 11.1764 31.5197 12.9221 30.4756 13.8877L25.5918 18.4043C24.7407 19.1914 24.36 20.3649 24.5859 21.502L25.8818 28.0264C26.159 29.4212 24.6746 30.5001 23.4336 29.8057L17.6279 26.5566C16.6164 25.9904 15.3836 25.9904 14.3721 26.5566L8.56641 29.8057C7.32542 30.5001 5.841 29.4212 6.11816 28.0264L7.41406 21.502C7.63999 20.3649 7.25932 19.1914 6.4082 18.4043L1.52441 13.8877C0.480314 12.9221 1.04685 11.1764 2.45898 11.0088L9.06543 10.2256C10.2166 10.0891 11.2146 9.36421 11.7002 8.31152L14.4863 2.27051Z" stroke="#FFC32C" stroke-width="1.66667" />
</svg>
