<svg width="16" height="16" viewBox="0 0 16 16" fill="none" xmlns="http://www.w3.org/2000/svg">
    <path d="M7.24316 1.63574C7.54101 0.990017 8.45899 0.990015 8.75684 1.63574L10.1504 4.65625C10.3932 5.18225 10.8915 5.54497 11.4668 5.61328L14.7705 6.00488C15.4765 6.08874 15.7603 6.96157 15.2383 7.44434L12.7959 9.70215C12.3703 10.0957 12.18 10.6825 12.293 11.251L12.9414 14.5137C13.0796 15.2108 12.3371 15.7503 11.7168 15.4033L8.81445 13.7783C8.30866 13.4952 7.69134 13.4952 7.18555 13.7783L4.2832 15.4033C3.66287 15.7503 2.92038 15.2108 3.05859 14.5137L3.70703 11.251C3.82 10.6825 3.62966 10.0957 3.2041 9.70215L0.761719 7.44434C0.239683 6.96157 0.523468 6.08874 1.22949 6.00488L4.5332 5.61328C5.10851 5.54497 5.60679 5.18225 5.84961 4.65625L7.24316 1.63574Z" fill="#FFC32C" stroke="#FFC32C" stroke-width="0.833333"/>
    </svg>
    