<svg width="24" height="24" viewBox="0 0 24 24" fill="none" xmlns="http://www.w3.org/2000/svg">
<path d="M9.48039 20.6901C9.10034 20.6999 8.7277 20.5839 8.42039 20.3601C8.02039 20.0701 7.40039 19.3201 7.79039 17.6401L8.36039 15.1801C8.39235 14.9121 8.31684 14.6424 8.15039 14.4301L6.15739 12.4401C5.80217 12.1608 5.53563 11.7844 5.39008 11.3566C5.24453 10.9289 5.22622 10.468 5.33739 10.0301C5.49891 9.60844 5.77974 9.243 6.14557 8.97839C6.51141 8.71378 6.9464 8.56147 7.39739 8.54006L9.94739 8.12006C10.1871 8.05309 10.3936 7.89996 10.5274 7.69006L11.9374 4.87006C12.089 4.43554 12.3658 4.05559 12.7329 3.77801C13.1 3.50043 13.541 3.33761 14.0004 3.31006C14.4587 3.33876 14.8984 3.5021 15.2643 3.77961C15.6302 4.05711 15.9061 4.43644 16.0574 4.87006L17.4674 7.69006C17.6033 7.89793 17.809 8.05043 18.0474 8.12006L20.5974 8.54006C21.0489 8.55957 21.4847 8.71115 21.8509 8.97601C22.2171 9.24086 22.4975 9.60736 22.6574 10.0301C22.7686 10.468 22.7502 10.9289 22.6047 11.3566C22.4591 11.7844 22.1926 12.1608 21.8374 12.4401L19.8474 14.4301C19.7644 14.5349 19.7031 14.6552 19.667 14.784C19.631 14.9127 19.6209 15.0474 19.6374 15.1801L20.2074 17.6401C20.5974 19.3301 19.9774 20.0701 19.5774 20.3601C19.1774 20.6501 18.2874 21.0201 16.7874 20.1301L14.4004 18.7101C14.2718 18.6508 14.132 18.6201 13.9904 18.6201C13.8488 18.6201 13.7089 18.6508 13.5804 18.7101L11.1904 20.1301C10.6823 20.4695 10.0909 20.6632 9.48039 20.6901ZM14.0004 4.81006C13.8404 4.81006 13.5504 5.00006 13.2804 5.54006L11.8704 8.36006C11.6988 8.67761 11.4593 8.9534 11.1689 9.16774C10.8785 9.38208 10.5444 9.5297 10.1904 9.60006L7.64039 10.0201C7.07039 10.1201 6.81039 10.3301 6.76039 10.4901C6.71039 10.6501 6.80039 10.9701 7.21039 11.3801L9.20039 13.3701C9.4617 13.6548 9.65363 13.9962 9.76118 14.3674C9.86873 14.7386 9.88899 15.1297 9.82039 15.5101L9.25039 17.9701C9.08039 18.6801 9.19039 19.0601 9.30039 19.1501C9.41039 19.2401 9.81039 19.2201 10.4304 18.8401L12.8304 17.4201C13.189 17.2233 13.5914 17.1201 14.0004 17.1201C14.4094 17.1201 14.8118 17.2233 15.1704 17.4201L17.5604 18.8401C18.1904 19.2101 18.5904 19.2301 18.7004 19.1501C18.8104 19.0701 18.9204 18.6901 18.7504 17.9701L18.1804 15.5101C18.1086 15.1297 18.1273 14.7378 18.235 14.3661C18.3427 13.9943 18.5364 13.6531 18.8004 13.3701L20.7904 11.3801C21.2004 10.9701 21.2904 10.6401 21.2404 10.4901C21.1904 10.3401 20.9304 10.1201 20.3604 10.0201L17.8104 9.60006C17.4564 9.5297 17.1223 9.38208 16.8319 9.16774C16.5415 8.9534 16.3019 8.67761 16.1304 8.36006L14.7204 5.54006C14.4504 5.00006 14.1574 4.81006 14.0004 4.81006Z" fill="#333333"/>
<path d="M8 5.75H2C1.80149 5.74869 1.61149 5.66925 1.47112 5.52888C1.33075 5.38851 1.25131 5.19851 1.25 5C1.25131 4.80149 1.33075 4.61149 1.47112 4.47112C1.61149 4.33075 1.80149 4.25131 2 4.25H8C8.19851 4.25131 8.38851 4.33075 8.52888 4.47112C8.66925 4.61149 8.74869 4.80149 8.75 5C8.74869 5.19851 8.66925 5.38851 8.52888 5.52888C8.38851 5.66925 8.19851 5.74869 8 5.75Z" fill="#333333"/>
<path d="M5 19.75H2C1.80149 19.7487 1.61149 19.6693 1.47112 19.5289C1.33075 19.3885 1.25131 19.1985 1.25 19C1.25131 18.8015 1.33075 18.6115 1.47112 18.4711C1.61149 18.3307 1.80149 18.2513 2 18.25H5C5.19851 18.2513 5.38851 18.3307 5.52888 18.4711C5.66925 18.6115 5.74869 18.8015 5.75 19C5.74869 19.1985 5.66925 19.3885 5.52888 19.5289C5.38851 19.6693 5.19851 19.7487 5 19.75Z" fill="#333333"/>
<path d="M3 12.75H2C1.80149 12.7487 1.61149 12.6693 1.47112 12.5289C1.33075 12.3885 1.25131 12.1985 1.25 12C1.25131 11.8015 1.33075 11.6115 1.47112 11.4711C1.61149 11.3307 1.80149 11.2513 2 11.25H3C3.19851 11.2513 3.38851 11.3307 3.52888 11.4711C3.66925 11.6115 3.74869 11.8015 3.75 12C3.74869 12.1985 3.66925 12.3885 3.52888 12.5289C3.38851 12.6693 3.19851 12.7487 3 12.75Z" fill="#333333"/>
</svg>
