<svg width="24" height="24" viewBox="0 0 24 24" fill="none" xmlns="http://www.w3.org/2000/svg">
	<path d="M16.9999 20.75H6.9999C2.7499 20.75 1.3589 19.48 1.2589 15.52C1.25637 15.4199 1.27389 15.3203 1.31043 15.227C1.34697 15.1337 1.4018 15.0487 1.47168 14.977C1.54157 14.9052 1.6251 14.8482 1.71736 14.8092C1.80962 14.7702 1.90874 14.7501 2.0089 14.75C2.73825 14.75 3.43772 14.4603 3.95345 13.9445C4.46917 13.4288 4.7589 12.7293 4.7589 12C4.7589 11.2707 4.46917 10.5712 3.95345 10.0555C3.43772 9.53973 2.73825 9.25 2.0089 9.25C1.90812 9.24949 1.80846 9.22888 1.71574 9.18939C1.62302 9.1499 1.5391 9.09231 1.4689 9.02C1.39738 8.9502 1.34163 8.86589 1.30541 8.77275C1.26919 8.6796 1.25333 8.57978 1.2589 8.48C1.3589 4.52 2.7499 3.25 6.9999 3.25H16.9999C21.4099 3.25 22.7499 4.59 22.7499 9V15C22.7499 19.41 21.4099 20.75 16.9999 20.75ZM2.7899 16.18C2.9589 18.72 3.8199 19.25 6.9999 19.25H16.9999C20.5799 19.25 21.2499 18.57 21.2499 15V9C21.2499 5.43 20.5799 4.75 16.9999 4.75H6.9999C3.8199 4.75 2.9599 5.29 2.7899 7.82C3.76294 8.00515 4.64089 8.52396 5.27243 9.287C5.90397 10.05 6.24952 11.0095 6.24952 12C6.24952 12.9905 5.90397 13.95 5.27243 14.713C4.64089 15.476 3.76294 15.9949 2.7899 16.18Z" fill="#333333" />
	<path d="M9 8.25C8.80149 8.24869 8.61149 8.16925 8.47112 8.02888C8.33075 7.88851 8.25131 7.69851 8.25 7.5V4C8.25131 3.80149 8.33075 3.61149 8.47112 3.47112C8.61149 3.33075 8.80149 3.25131 9 3.25C9.19851 3.25131 9.38851 3.33075 9.52888 3.47112C9.66925 3.61149 9.74869 3.80149 9.75 4V7.5C9.74869 7.69851 9.66925 7.88851 9.52888 8.02888C9.38851 8.16925 9.19851 8.24869 9 8.25Z" fill="#333333" />
	<path d="M9 20.75C8.80149 20.7487 8.61149 20.6693 8.47112 20.5289C8.33075 20.3885 8.25131 20.1985 8.25 20V16.5C8.25131 16.3015 8.33075 16.1115 8.47112 15.9711C8.61149 15.8307 8.80149 15.7513 9 15.75C9.19851 15.7513 9.38851 15.8307 9.52888 15.9711C9.66925 16.1115 9.74869 16.3015 9.75 16.5V20C9.74869 20.1985 9.66925 20.3885 9.52888 20.5289C9.38851 20.6693 9.19851 20.7487 9 20.75Z" fill="#333333" />
	<path d="M13.0401 15.6499C12.7964 15.6473 12.5592 15.5706 12.3601 15.4299C12.1834 15.303 12.0463 15.1284 11.9649 14.9266C11.8834 14.7248 11.861 14.504 11.9001 14.2899L12.1101 13.0999L11.2401 12.2499C11.0849 12.0987 10.9747 11.9074 10.9218 11.6974C10.8688 11.4873 10.8752 11.2666 10.9401 11.0599C11.0072 10.8535 11.1309 10.67 11.297 10.5303C11.4632 10.3907 11.6652 10.3004 11.8801 10.2699L13.0801 10.0899L13.6201 8.9999C13.7156 8.80535 13.8636 8.64139 14.0474 8.52653C14.2312 8.41166 14.4434 8.35049 14.6601 8.3499C14.8774 8.34787 15.0907 8.40798 15.275 8.52314C15.4592 8.63829 15.6068 8.80371 15.7001 8.9999L16.2401 10.0899L17.4401 10.2699C17.655 10.3002 17.8571 10.3903 18.0232 10.53C18.1893 10.6697 18.3127 10.8532 18.3795 11.0597C18.4462 11.2662 18.4535 11.4873 18.4006 11.6978C18.3477 11.9082 18.2366 12.0996 18.0801 12.2499L17.2101 13.0999L17.4201 14.2899C17.4593 14.504 17.4368 14.7248 17.3554 14.9266C17.274 15.1284 17.1369 15.303 16.9601 15.4299C16.7849 15.5561 16.5782 15.6313 16.3628 15.6472C16.1475 15.6631 15.932 15.619 15.7401 15.5199L14.6701 14.9599L13.5871 15.5199C13.4181 15.607 13.2303 15.6516 13.0401 15.6499ZM12.7701 11.6499L13.2801 12.1499C13.4162 12.2811 13.5182 12.4434 13.5774 12.6229C13.6367 12.8023 13.6513 12.9935 13.6201 13.1799L13.5001 13.8799L14.1301 13.5499C14.2963 13.4613 14.4818 13.415 14.6701 13.415C14.8585 13.415 15.0439 13.4613 15.2101 13.5499L15.8401 13.8799L15.7201 13.1799C15.6874 12.9935 15.7014 12.8019 15.7607 12.6222C15.82 12.4425 15.9229 12.2802 16.0601 12.1499L16.5701 11.6499L15.8701 11.5499C15.6832 11.5206 15.5059 11.4474 15.3529 11.3361C15.1999 11.2248 15.0756 11.0787 14.9901 10.9099L14.6801 10.2699L14.3701 10.9099C14.2847 11.0787 14.1604 11.2248 14.0073 11.3361C13.8543 11.4474 13.6771 11.5206 13.4901 11.5499L12.7701 11.6499Z" fill="#333333" />
</svg>
