<svg width="24" height="24" viewBox="0 0 24 24" fill="none" xmlns="http://www.w3.org/2000/svg">
	<path d="M11.9995 21.4001C11.0455 21.4108 10.1218 21.0649 9.40952 20.4301L2.47952 14.1401C1.8807 13.5611 1.47637 12.8105 1.32233 11.992C1.16828 11.1734 1.27212 10.3272 1.61952 9.57011L4.01952 4.75011C4.36396 4.12847 4.86188 3.60541 5.46581 3.2308C6.06975 2.85618 6.75957 2.6425 7.46952 2.61011H16.5295C17.2395 2.6425 17.9293 2.85618 18.5332 3.2308C19.1372 3.60541 19.6351 4.12847 19.9795 4.75011L22.3795 9.57011C22.7269 10.3272 22.8307 11.1734 22.6767 11.992C22.5227 12.8105 22.1183 13.5611 21.5195 14.1401L14.5895 20.4301C13.8748 21.0608 12.9527 21.4062 11.9995 21.4001ZM7.46952 4.10011C7.03771 4.13008 6.61977 4.26509 6.25204 4.4934C5.8843 4.72171 5.57791 5.0364 5.35952 5.41011L2.95952 10.2301C2.76194 10.6954 2.70684 11.2089 2.80118 11.7055C2.89552 12.2022 3.13507 12.6597 3.48952 13.0201L10.4195 19.3101C10.8594 19.6876 11.4199 19.8952 11.9995 19.8952C12.5792 19.8952 13.1397 19.6876 13.5795 19.3101L20.5095 13.0201C20.8619 12.6584 21.1001 12.201 21.1943 11.7049C21.2885 11.2087 21.2347 10.6958 21.0395 10.2301L18.6395 5.41011C18.419 5.03906 18.1119 4.72698 17.7444 4.50057C17.3769 4.27417 16.9601 4.14019 16.5295 4.11011H7.46952V4.10011Z" fill="#6A8094" />
	<path d="M12 15.25C11.8015 15.2487 11.6115 15.1693 11.4711 15.0289C11.3307 14.8885 11.2513 14.6985 11.25 14.5V8.5C11.2513 8.30149 11.3307 8.11149 11.4711 7.97112C11.6115 7.83075 11.8015 7.75131 12 7.75C12.1985 7.75131 12.3885 7.83075 12.5289 7.97112C12.6693 8.11149 12.7487 8.30149 12.75 8.5V14.5C12.7487 14.6985 12.6693 14.8885 12.5289 15.0289C12.3885 15.1693 12.1985 15.2487 12 15.25Z" fill="#6A8094" />
	<path d="M16 9.25H8C7.80149 9.24869 7.61149 9.16925 7.47112 9.02888C7.33075 8.88851 7.25131 8.69851 7.25 8.5C7.25131 8.30149 7.33075 8.11149 7.47112 7.97112C7.61149 7.83075 7.80149 7.75131 8 7.75H16C16.1985 7.75131 16.3885 7.83075 16.5289 7.97112C16.6693 8.11149 16.7487 8.30149 16.75 8.5C16.7487 8.69851 16.6693 8.88851 16.5289 9.02888C16.3885 9.16925 16.1985 9.24869 16 9.25Z" fill="#6A8094" />
</svg>
