<svg width="24" height="24" viewBox="0 0 24 24" fill="none" xmlns="http://www.w3.org/2000/svg">
<path d="M20.9998 6.73022H20.9198C15.6732 6.13418 10.3799 6.06718 5.11983 6.53022L3.07983 6.73022C2.98028 6.74114 2.87956 6.73214 2.78352 6.70375C2.68748 6.67536 2.59805 6.62815 2.52043 6.56487C2.44282 6.50158 2.37857 6.42349 2.33142 6.33513C2.28428 6.24678 2.25519 6.14993 2.24583 6.05022C2.23547 5.9523 2.24463 5.85329 2.27277 5.75893C2.30091 5.66456 2.34748 5.57672 2.40979 5.50046C2.47209 5.42421 2.5489 5.36106 2.63576 5.31468C2.72262 5.26829 2.81781 5.23959 2.91583 5.23022L4.95583 5.03022C10.3192 4.56229 15.7158 4.62929 21.0658 5.23022C21.2632 5.25068 21.4444 5.3484 21.5699 5.50204C21.6955 5.65568 21.7551 5.85275 21.7358 6.05022C21.7206 6.23513 21.6365 6.40758 21.5002 6.53349C21.3639 6.65939 21.1854 6.7296 20.9998 6.73022Z" fill="white"/>
<path d="M8.49994 5.72C8.45638 5.72128 8.4128 5.71793 8.36994 5.71C8.17593 5.67504 8.00336 5.56538 7.88931 5.40458C7.77525 5.24378 7.7288 5.04467 7.75994 4.85L7.97994 3.54C8.13994 2.58 8.35994 1.25 10.6899 1.25H13.3099C15.6499 1.25 15.8699 2.63 16.0199 3.55L16.2399 4.85C16.2601 4.94808 16.2604 5.04922 16.2407 5.1474C16.2209 5.24558 16.1816 5.33878 16.1251 5.42144C16.0686 5.50411 15.996 5.57456 15.9117 5.62858C15.8274 5.6826 15.7331 5.71909 15.6343 5.73588C15.5356 5.75267 15.4345 5.74941 15.3371 5.7263C15.2397 5.70319 15.1479 5.6607 15.0672 5.60136C14.9866 5.54202 14.9187 5.46705 14.8676 5.38091C14.8165 5.29478 14.7833 5.19924 14.7699 5.1L14.5489 3.8C14.4089 2.93 14.3789 2.76 13.3189 2.76H10.6999C9.63994 2.76 9.61994 2.9 9.46994 3.79L9.23994 5.09C9.21146 5.26576 9.12137 5.42565 8.98579 5.54107C8.85021 5.6565 8.678 5.71992 8.49994 5.72Z" fill="white"/>
<path d="M15.2098 22.75H8.78983C5.29983 22.75 5.15983 20.82 5.04983 19.26L4.39783 9.18898C4.38599 8.99041 4.45279 8.79515 4.58378 8.64544C4.71478 8.49574 4.89944 8.40361 5.09783 8.38898C5.29634 8.37741 5.49145 8.4443 5.6411 8.57524C5.79075 8.70619 5.88295 8.89069 5.89783 9.08898L6.54783 19.159C6.65783 20.679 6.69783 21.249 8.78783 21.249H15.2078C17.3078 21.249 17.3478 20.679 17.4478 19.159L18.0978 9.08898C18.1142 8.89127 18.2068 8.70768 18.3561 8.57704C18.5054 8.4464 18.6997 8.37896 18.8978 8.38898C18.9963 8.39546 19.0926 8.42131 19.1811 8.46504C19.2697 8.50876 19.3487 8.56952 19.4137 8.64383C19.4787 8.71813 19.5285 8.80453 19.5601 8.89807C19.5916 8.99162 19.6045 9.09047 19.5978 9.18898L18.9478 19.259C18.8398 20.82 18.6978 22.75 15.2098 22.75Z" fill="white"/>
<path d="M13.6601 17.25H10.3301C10.1316 17.2487 9.94157 17.1693 9.8012 17.0289C9.66083 16.8885 9.58139 16.6985 9.58008 16.5C9.58139 16.3015 9.66083 16.1115 9.8012 15.9711C9.94157 15.8307 10.1316 15.7513 10.3301 15.75H13.6601C13.8586 15.7513 14.0486 15.8307 14.189 15.9711C14.3293 16.1115 14.4088 16.3015 14.4101 16.5C14.4088 16.6985 14.3293 16.8885 14.189 17.0289C14.0486 17.1693 13.8586 17.2487 13.6601 17.25Z" fill="white"/>
<path d="M14.5 13.25H9.5C9.30149 13.2487 9.11149 13.1693 8.97112 13.0289C8.83075 12.8885 8.75131 12.6985 8.75 12.5C8.75131 12.3015 8.83075 12.1115 8.97112 11.9711C9.11149 11.8307 9.30149 11.7513 9.5 11.75H14.5C14.6985 11.7513 14.8885 11.8307 15.0289 11.9711C15.1693 12.1115 15.2487 12.3015 15.25 12.5C15.2487 12.6985 15.1693 12.8885 15.0289 13.0289C14.8885 13.1693 14.6985 13.2487 14.5 13.25Z" fill="white"/>
</svg>
