<svg width="24" height="24" viewBox="0 0 24 24" fill="none" xmlns="http://www.w3.org/2000/svg">
	<path d="M2.00045 22.7499C1.90198 22.7499 1.80449 22.7305 1.71354 22.6927C1.6226 22.655 1.53999 22.5997 1.47045 22.5299C1.37624 22.4363 1.3082 22.3197 1.27311 22.1916C1.23801 22.0635 1.2371 21.9285 1.27045 21.7999L2.53045 17.0899C1.31159 14.8214 0.950092 12.1899 1.51207 9.67679C2.07405 7.16363 3.52194 4.93676 5.59094 3.40345C7.65994 1.87014 10.2118 1.13288 12.7797 1.3265C15.3476 1.52012 17.7601 2.63169 19.5758 4.4579C21.3914 6.28411 22.4891 8.70292 22.6678 11.2719C22.8466 13.8409 22.0946 16.3885 20.5494 18.4486C19.0042 20.5087 16.769 21.9437 14.2526 22.4911C11.7362 23.0386 9.10689 22.6619 6.84545 21.4299L2.20045 22.7199C2.13561 22.7397 2.06822 22.7498 2.00045 22.7499ZM6.94545 19.8799C7.07813 19.8835 7.20818 19.9178 7.32545 19.9799C9.26734 21.123 11.5589 21.52 13.7722 21.0969C15.9854 20.6737 17.9689 19.4593 19.3522 17.6805C20.7354 15.9017 21.4238 13.6802 21.2887 11.4309C21.1536 9.18159 20.2043 7.05841 18.6181 5.45794C17.032 3.85746 14.9174 2.88916 12.6694 2.73392C10.4214 2.57867 8.19381 3.24709 6.40267 4.61433C4.61154 5.98157 3.37939 7.9541 2.93639 10.1635C2.4934 12.3728 2.86986 14.6679 3.99545 16.6199C4.09602 16.792 4.12476 16.9968 4.07545 17.1899L3.07545 20.9299L6.75545 19.9099C6.81686 19.8902 6.88095 19.8801 6.94545 19.8799Z" fill="white" />
	<path d="M14.7402 17.76C14.0741 17.7513 13.417 17.6049 12.8102 17.33C12.1475 17.0431 11.52 16.6807 10.9402 16.25C10.327 15.8011 9.7487 15.3063 9.21024 14.77C8.67632 14.2294 8.18172 13.6512 7.73024 13.04C7.30746 12.4605 6.94871 11.8368 6.66024 11.18C6.39198 10.5714 6.24914 9.91505 6.24024 9.25003C6.23925 8.82275 6.31723 8.39897 6.47024 8.00003C6.63842 7.5813 6.89809 7.20546 7.23024 6.90003C7.51472 6.59211 7.88636 6.37831 8.29555 6.28718C8.70474 6.19605 9.13199 6.23193 9.52024 6.39003C9.7737 6.5032 9.98902 6.68726 10.1402 6.92003L11.3002 8.55003C11.4144 8.70417 11.5085 8.87218 11.5802 9.05003C11.6603 9.23676 11.7044 9.43693 11.7102 9.64003C11.7104 9.90456 11.6377 10.164 11.5002 10.39C11.3909 10.5718 11.2599 10.7397 11.1102 10.89L10.9802 11.03C11.0546 11.1344 11.1347 11.2346 11.2202 11.33C11.4302 11.57 11.6602 11.83 11.9102 12.08C12.1602 12.33 12.4102 12.56 12.6602 12.77C12.7554 12.8528 12.8556 12.9296 12.9602 13L13.1002 12.86C13.2574 12.6956 13.4396 12.5572 13.6402 12.45C13.835 12.3389 14.053 12.2747 14.277 12.2626C14.5009 12.2504 14.7246 12.2907 14.9302 12.38C15.1045 12.4487 15.2691 12.5394 15.4202 12.65L17.0902 13.826C17.3183 13.9867 17.5009 14.2038 17.6202 14.456C17.7127 14.6778 17.7603 14.9157 17.7602 15.156C17.7583 15.4572 17.69 15.7543 17.5602 16.026C17.4364 16.2775 17.2819 16.5126 17.1002 16.726C16.7973 17.0615 16.4255 17.3276 16.0102 17.506C15.6084 17.6755 15.1764 17.7619 14.7402 17.76ZM8.79024 7.74003C8.6924 7.74331 8.59636 7.76729 8.50846 7.81038C8.42055 7.85347 8.34277 7.9147 8.28024 7.99003C8.10462 8.15265 7.96496 8.35021 7.87024 8.57003C7.78116 8.78901 7.73696 9.02364 7.74024 9.26003C7.75005 9.72543 7.85201 10.1843 8.04024 10.61C8.28193 11.1616 8.58376 11.6847 8.94024 12.17C9.34076 12.7191 9.78201 13.2372 10.2602 13.72C10.7459 14.1982 11.2638 14.6426 11.8102 15.05C12.3016 15.4109 12.8315 15.7162 13.3902 15.96C13.6996 16.1241 14.0389 16.2237 14.3878 16.2529C14.7367 16.2821 15.0879 16.2403 15.4202 16.13C15.6321 16.036 15.8226 15.8999 15.9802 15.73C16.0704 15.6322 16.1447 15.5209 16.2002 15.4C16.231 15.3306 16.248 15.2559 16.2502 15.18C16.2502 15.1413 16.2398 15.1034 16.2202 15.07L14.5502 13.91C14.4891 13.8641 14.4218 13.827 14.3502 13.8C14.271 13.8401 14.1999 13.8943 14.1402 13.96L13.7602 14.34C13.6136 14.479 13.4315 14.575 13.2339 14.6173C13.0364 14.6596 12.831 14.6467 12.6402 14.58L12.4602 14.5C12.1802 14.3469 11.9186 14.1623 11.6802 13.95C11.4002 13.71 11.1302 13.46 10.8402 13.18C10.5502 12.9 10.3102 12.62 10.0702 12.34C9.86156 12.1001 9.67419 11.8425 9.51024 11.57L9.40024 11.31C9.37222 11.2091 9.35875 11.1047 9.36024 11C9.35745 10.7281 9.46159 10.4659 9.65024 10.27L10.0302 9.88003C10.0977 9.81947 10.1551 9.74858 10.2002 9.67003C10.1677 9.59914 10.1275 9.53207 10.0802 9.47003L8.91024 7.82003L8.79024 7.74003Z" fill="white" />
</svg>
